<?xml version="1.0" encoding="UTF-8" standalone="no"?>
<!-- Created with Inkscape (http://www.inkscape.org/) -->

<svg
   xmlns:dc="http://purl.org/dc/elements/1.1/"
   xmlns:cc="http://creativecommons.org/ns#"
   xmlns:rdf="http://www.w3.org/1999/02/22-rdf-syntax-ns#"
   xmlns:svg="http://www.w3.org/2000/svg"
   xmlns="http://www.w3.org/2000/svg"
   xmlns:sodipodi="http://sodipodi.sourceforge.net/DTD/sodipodi-0.dtd"
   xmlns:inkscape="http://www.inkscape.org/namespaces/inkscape"
   id="svg2"
   version="1.1"
   inkscape:version="0.91 r13725"
   xml:space="preserve"
   width="541.97205"
   height="288.99677"
   viewBox="0 0 541.97207 288.99676"
   sodipodi:docname="9_17b.svg"><metadata
     id="metadata8"><rdf:RDF><cc:Work
         rdf:about=""><dc:format>image/svg+xml</dc:format><dc:type
           rdf:resource="http://purl.org/dc/dcmitype/StillImage" /><dc:title></dc:title></cc:Work></rdf:RDF></metadata><defs
     id="defs6"><clipPath
       clipPathUnits="userSpaceOnUse"
       id="clipPath18"><path
         d="m 0,0 1058.173,0 0,793.701 L 0,793.701 0,0 Z"
         id="path20"
         inkscape:connector-curvature="0" /></clipPath><clipPath
       clipPathUnits="userSpaceOnUse"
       id="clipPath30"><path
         d="m 980.208,708.66 -71.469,0 0,-17.532 71.469,0 0,17.532 z"
         id="path32"
         inkscape:connector-curvature="0" /></clipPath><clipPath
       clipPathUnits="userSpaceOnUse"
       id="clipPath42"><path
         d="m 980.208,787.797 -71.469,0 0,-79.137 71.469,0 0,79.137 z"
         id="path44"
         inkscape:connector-curvature="0" /></clipPath><clipPath
       clipPathUnits="userSpaceOnUse"
       id="clipPath162"><path
         d="m 56.691,71.829 436.356,0 0,550.044 -436.356,0 0,-550.044 z"
         id="path164"
         inkscape:connector-curvature="0" /></clipPath><clipPath
       clipPathUnits="userSpaceOnUse"
       id="clipPath266"><path
         d="m 56.691,71.829 436.356,0 0,550.044 -436.356,0 0,-550.044 z"
         id="path268"
         inkscape:connector-curvature="0" /></clipPath><clipPath
       clipPathUnits="userSpaceOnUse"
       id="clipPath1160"><path
         d="m 0,0 1058.173,0 0,793.701 L 0,793.701 0,0 Z"
         id="path1162"
         inkscape:connector-curvature="0" /></clipPath><clipPath
       clipPathUnits="userSpaceOnUse"
       id="clipPath1316"><path
         d="m 590.229,90.675 408.042,0 0,571.221 -408.042,0 0,-571.221 z"
         id="path1318"
         inkscape:connector-curvature="0" /></clipPath><clipPath
       clipPathUnits="userSpaceOnUse"
       id="clipPath1744"><path
         d="m 0,0 1058.173,0 0,793.701 L 0,793.701 0,0 Z"
         id="path1746"
         inkscape:connector-curvature="0" /></clipPath></defs><sodipodi:namedview
     pagecolor="#ffffff"
     bordercolor="#666666"
     borderopacity="1"
     objecttolerance="10"
     gridtolerance="10"
     guidetolerance="10"
     inkscape:pageopacity="0"
     inkscape:pageshadow="2"
     inkscape:window-width="1920"
     inkscape:window-height="1010"
     id="namedview4"
     showgrid="false"
     inkscape:zoom="0.95149178"
     inkscape:cx="463.78211"
     inkscape:cy="340.51409"
     inkscape:window-x="-5"
     inkscape:window-y="-5"
     inkscape:window-maximized="1"
     inkscape:current-layer="g10"
     fit-margin-top="0"
     fit-margin-left="0"
     fit-margin-right="0"
     fit-margin-bottom="0" /><g
     id="g10"
     inkscape:groupmode="layer"
     inkscape:label="Capítulo 9"
     transform="matrix(1.25,0,0,-1.25,-71.598928,337.65593)"><text
       transform="scale(1,-1)"
       style="font-style:italic;font-variant:normal;font-weight:normal;font-stretch:normal;font-size:9.375px;font-family:Times;-inkscape-font-specification:Times-Italic;writing-mode:lr-tb;fill:#231f20;fill-opacity:1;fill-rule:nonzero;stroke:none"
       id="text360"
       x="59.935299"
       y="-219.3434"><tspan
         x="59.935299"
         y="-219.3434"
         id="tspan362">C</tspan></text>
<text
       transform="scale(1,-1)"
       style="font-style:italic;font-variant:normal;font-weight:normal;font-stretch:normal;font-size:6.875px;font-family:Times;-inkscape-font-specification:Times-Italic;writing-mode:lr-tb;fill:#231f20;fill-opacity:1;fill-rule:nonzero;stroke:none"
       id="text364"
       x="66.1884"
       y="-216.8434"><tspan
         x="66.1884"
         y="-216.8434"
         id="tspan366">D</tspan></text>
<path
       inkscape:connector-curvature="0"
       id="path702"
       style="fill:none;stroke:#231f20;stroke-width:0.625;stroke-linecap:butt;stroke-linejoin:miter;stroke-miterlimit:4;stroke-dasharray:none;stroke-opacity:1"
       d="m 94.2943,113.7184 167.5,0 0,151.875 -167.5,0 0,-151.875 z" /><path
       inkscape:connector-curvature="0"
       id="path706"
       style="fill:none;stroke:#231f20;stroke-width:0.625;stroke-linecap:butt;stroke-linejoin:miter;stroke-miterlimit:4;stroke-dasharray:none;stroke-opacity:1"
       d="m 94.2937,235.2187 7.5,0" /><path
       inkscape:connector-curvature="0"
       id="path710"
       style="fill:none;stroke:#231f20;stroke-width:0.625;stroke-linecap:butt;stroke-linejoin:miter;stroke-miterlimit:4;stroke-dasharray:none;stroke-opacity:1"
       d="m 94.2937,204.8452 7.5,0" /><path
       inkscape:connector-curvature="0"
       id="path714"
       style="fill:none;stroke:#231f20;stroke-width:0.625;stroke-linecap:butt;stroke-linejoin:miter;stroke-miterlimit:4;stroke-dasharray:none;stroke-opacity:1"
       d="m 94.2937,174.4667 7.5,0" /><path
       inkscape:connector-curvature="0"
       id="path718"
       style="fill:none;stroke:#231f20;stroke-width:0.625;stroke-linecap:butt;stroke-linejoin:miter;stroke-miterlimit:4;stroke-dasharray:none;stroke-opacity:1"
       d="m 94.2937,144.0932 7.5,0" /><path
       inkscape:connector-curvature="0"
       id="path722"
       style="fill:none;stroke:#231f20;stroke-width:0.625;stroke-linecap:butt;stroke-linejoin:miter;stroke-miterlimit:4;stroke-dasharray:none;stroke-opacity:1"
       d="m 254.2937,235.2187 7.5,0" /><path
       inkscape:connector-curvature="0"
       id="path726"
       style="fill:none;stroke:#231f20;stroke-width:0.625;stroke-linecap:butt;stroke-linejoin:miter;stroke-miterlimit:4;stroke-dasharray:none;stroke-opacity:1"
       d="m 254.2937,204.8452 7.5,0" /><path
       inkscape:connector-curvature="0"
       id="path730"
       style="fill:none;stroke:#231f20;stroke-width:0.625;stroke-linecap:butt;stroke-linejoin:miter;stroke-miterlimit:4;stroke-dasharray:none;stroke-opacity:1"
       d="m 254.2937,174.4667 7.5,0" /><path
       inkscape:connector-curvature="0"
       id="path734"
       style="fill:none;stroke:#231f20;stroke-width:0.625;stroke-linecap:butt;stroke-linejoin:miter;stroke-miterlimit:4;stroke-dasharray:none;stroke-opacity:1"
       d="m 254.2937,144.0932 7.5,0" /><path
       inkscape:connector-curvature="0"
       id="path738"
       style="fill:none;stroke:#231f20;stroke-width:0.625;stroke-linecap:butt;stroke-linejoin:miter;stroke-miterlimit:4;stroke-dasharray:none;stroke-opacity:1"
       d="m 323.0443,235.2187 7.5,0" /><path
       inkscape:connector-curvature="0"
       id="path742"
       style="fill:none;stroke:#231f20;stroke-width:0.625;stroke-linecap:butt;stroke-linejoin:miter;stroke-miterlimit:4;stroke-dasharray:none;stroke-opacity:1"
       d="m 323.0443,204.8452 7.5,0" /><path
       inkscape:connector-curvature="0"
       id="path746"
       style="fill:none;stroke:#231f20;stroke-width:0.625;stroke-linecap:butt;stroke-linejoin:miter;stroke-miterlimit:4;stroke-dasharray:none;stroke-opacity:1"
       d="m 323.0443,174.4667 7.5,0" /><path
       inkscape:connector-curvature="0"
       id="path750"
       style="fill:none;stroke:#231f20;stroke-width:0.625;stroke-linecap:butt;stroke-linejoin:miter;stroke-miterlimit:4;stroke-dasharray:none;stroke-opacity:1"
       d="m 323.0443,144.0932 7.5,0" /><path
       inkscape:connector-curvature="0"
       id="path754"
       style="fill:none;stroke:#231f20;stroke-width:0.625;stroke-linecap:butt;stroke-linejoin:miter;stroke-miterlimit:4;stroke-dasharray:none;stroke-opacity:1"
       d="m 483.0443,235.2187 7.5,0" /><path
       inkscape:connector-curvature="0"
       id="path758"
       style="fill:none;stroke:#231f20;stroke-width:0.625;stroke-linecap:butt;stroke-linejoin:miter;stroke-miterlimit:4;stroke-dasharray:none;stroke-opacity:1"
       d="m 483.0443,204.8452 7.5,0" /><path
       inkscape:connector-curvature="0"
       id="path762"
       style="fill:none;stroke:#231f20;stroke-width:0.625;stroke-linecap:butt;stroke-linejoin:miter;stroke-miterlimit:4;stroke-dasharray:none;stroke-opacity:1"
       d="m 483.0443,174.4667 7.5,0" /><path
       inkscape:connector-curvature="0"
       id="path766"
       style="fill:none;stroke:#231f20;stroke-width:0.625;stroke-linecap:butt;stroke-linejoin:miter;stroke-miterlimit:4;stroke-dasharray:none;stroke-opacity:1"
       d="m 483.0443,144.0932 7.5,0" /><path
       inkscape:connector-curvature="0"
       id="path770"
       style="fill:none;stroke:#231f20;stroke-width:0.625;stroke-linecap:butt;stroke-linejoin:miter;stroke-miterlimit:4;stroke-dasharray:none;stroke-opacity:1"
       d="m 245.5956,113.7184 0,7.5" /><path
       inkscape:connector-curvature="0"
       id="path774"
       style="fill:none;stroke:#231f20;stroke-width:0.625;stroke-linecap:butt;stroke-linejoin:miter;stroke-miterlimit:4;stroke-dasharray:none;stroke-opacity:1"
       d="m 215.3355,113.7184 0,7.5" /><path
       inkscape:connector-curvature="0"
       id="path778"
       style="fill:none;stroke:#231f20;stroke-width:0.625;stroke-linecap:butt;stroke-linejoin:miter;stroke-miterlimit:4;stroke-dasharray:none;stroke-opacity:1"
       d="m 185.0756,113.7184 0,7.5" /><path
       inkscape:connector-curvature="0"
       id="path782"
       style="fill:none;stroke:#231f20;stroke-width:0.625;stroke-linecap:butt;stroke-linejoin:miter;stroke-miterlimit:4;stroke-dasharray:none;stroke-opacity:1"
       d="m 154.813,113.7184 0,7.5" /><path
       inkscape:connector-curvature="0"
       id="path786"
       style="fill:none;stroke:#231f20;stroke-width:0.625;stroke-linecap:butt;stroke-linejoin:miter;stroke-miterlimit:4;stroke-dasharray:none;stroke-opacity:1"
       d="m 124.5537,113.7184 0,7.5" /><path
       inkscape:connector-curvature="0"
       id="path790"
       style="fill:none;stroke:#231f20;stroke-width:0.625;stroke-linecap:butt;stroke-linejoin:miter;stroke-miterlimit:4;stroke-dasharray:none;stroke-opacity:1"
       d="m 245.5956,258.0934 0,7.5" /><path
       inkscape:connector-curvature="0"
       id="path794"
       style="fill:none;stroke:#231f20;stroke-width:0.625;stroke-linecap:butt;stroke-linejoin:miter;stroke-miterlimit:4;stroke-dasharray:none;stroke-opacity:1"
       d="m 215.3355,258.0934 0,7.5" /><path
       inkscape:connector-curvature="0"
       id="path798"
       style="fill:none;stroke:#231f20;stroke-width:0.625;stroke-linecap:butt;stroke-linejoin:miter;stroke-miterlimit:4;stroke-dasharray:none;stroke-opacity:1"
       d="m 185.0756,258.0934 0,7.5" /><path
       inkscape:connector-curvature="0"
       id="path802"
       style="fill:none;stroke:#231f20;stroke-width:0.625;stroke-linecap:butt;stroke-linejoin:miter;stroke-miterlimit:4;stroke-dasharray:none;stroke-opacity:1"
       d="m 154.813,258.0934 0,7.5" /><path
       inkscape:connector-curvature="0"
       id="path806"
       style="fill:none;stroke:#231f20;stroke-width:0.625;stroke-linecap:butt;stroke-linejoin:miter;stroke-miterlimit:4;stroke-dasharray:none;stroke-opacity:1"
       d="m 124.5537,258.0934 0,7.5" /><text
       transform="matrix(1.0000053,0,-0.20348909,-0.99999467,0,0)"
       style="font-variant:normal;font-weight:normal;font-stretch:normal;font-size:9.37494946px;font-family:Symbol;-inkscape-font-specification:Symbol;writing-mode:lr-tb;fill:#231f20;fill-opacity:1;fill-rule:nonzero;stroke:none"
       id="text808"
       x="172.14793"
       y="-91.218887"><tspan
         x="172.14793"
         y="-91.218887"
         id="tspan810">A</tspan></text>
<text
       transform="scale(1,-1)"
       style="font-variant:normal;font-weight:normal;font-stretch:normal;font-size:9.375px;font-family:'Trade Gothic';-inkscape-font-specification:TradeGothic;writing-mode:lr-tb;fill:#231f20;fill-opacity:1;fill-rule:nonzero;stroke:none"
       id="text812"
       x="239.8676"
       y="-102.4684"><tspan
         x="239.8676 245.59572 209.6051 215.33322 179.34261 185.07072"
         y="-102.4684"
         sodipodi:role="line"
         id="tspan814">201612</tspan><tspan
         x="114.2801 120.00822 125.22073 129.90823 135.12073 137.72699 142.41447 145.27385 150.48636 155.17386 158.03323 162.72073 165.84261 170.53011 175.7426 180.95511 185.64261 188.50198 199.93948 203.06136 207.74886 210.87073 215.55823 220.77072 224.93323"
         y="-91.218399"
         sodipodi:role="line"
         id="tspan816">Ângulo de ataque, (graus)</tspan><tspan
         x="151.94885 121.68635 91.423843"
         y="-102.4684"
         sodipodi:role="line"
         id="tspan818">840</tspan><tspan
         x="84.814468"
         y="-111.21527"
         id="tspan820">0</tspan><tspan
         x="64.770721 70.498856 73.358231 79.086349 84.814468"
         y="-139.9684"
         sodipodi:role="line"
         id="tspan822">0,004</tspan><tspan
         x="64.770721 70.498856 73.358231 79.086349 84.814468"
         y="-171.21527"
         sodipodi:role="line"
         id="tspan824">0,008</tspan><tspan
         x="64.770721 70.498856 73.358231 79.086349 84.814468"
         y="-201.8434"
         sodipodi:role="line"
         id="tspan826">0,012</tspan><tspan
         x="64.770721 70.498856 73.358231 79.086349 84.814468"
         y="-231.8434"
         sodipodi:role="line"
         id="tspan828">0,016</tspan><tspan
         x="64.770721 70.498856 73.358231 79.086349 84.814468"
         y="-261.84341"
         sodipodi:role="line"
         id="tspan830">0,020</tspan></text>
<text
       transform="scale(1,-1)"
       style="font-style:italic;font-variant:normal;font-weight:normal;font-stretch:normal;font-size:9.375px;font-family:Times;-inkscape-font-specification:Times-Italic;writing-mode:lr-tb;fill:#231f20;fill-opacity:1;fill-rule:nonzero;stroke:none"
       id="text832"
       x="288.68323"
       y="-219.34653"><tspan
         x="288.68323"
         y="-219.34653"
         id="tspan834">C</tspan></text>
<text
       transform="scale(1,-1)"
       style="font-style:italic;font-variant:normal;font-weight:normal;font-stretch:normal;font-size:6.875px;font-family:Times;-inkscape-font-specification:Times-Italic;writing-mode:lr-tb;fill:#231f20;fill-opacity:1;fill-rule:nonzero;stroke:none"
       id="text836"
       x="294.9389"
       y="-216.8434"><tspan
         x="294.9389"
         y="-216.8434"
         id="tspan838">D</tspan></text>
<text
       transform="scale(1,-1)"
       style="font-variant:normal;font-weight:normal;font-stretch:normal;font-size:9.375px;font-family:'Trade Gothic';-inkscape-font-specification:TradeGothic;writing-mode:lr-tb;fill:#231f20;fill-opacity:1;fill-rule:nonzero;stroke:none"
       id="text840"
       x="293.5228"
       y="-139.9684"><tspan
         x="293.5228 299.25092 302.11029 307.83844 313.56656"
         y="-139.9684"
         sodipodi:role="line"
         id="tspan842">0,004</tspan><tspan
         x="293.5228 299.25092 302.11029 307.83844 313.56656"
         y="-171.21527"
         sodipodi:role="line"
         id="tspan844">0,008</tspan><tspan
         x="293.5228 299.25092 302.11029 307.83844 313.56656"
         y="-201.8434"
         sodipodi:role="line"
         id="tspan846">0,012</tspan><tspan
         x="293.5228 299.25092 302.11029 307.83844 313.56656"
         y="-231.8434"
         sodipodi:role="line"
         id="tspan848">0,016</tspan><tspan
         x="293.5228 299.25092 302.11029 307.83844 313.56656"
         y="-261.84341"
         sodipodi:role="line"
         id="tspan850">0,020</tspan></text>
<path
       inkscape:connector-curvature="0"
       id="path854"
       style="fill:none;stroke:#231f20;stroke-width:0.625;stroke-linecap:butt;stroke-linejoin:miter;stroke-miterlimit:4;stroke-dasharray:none;stroke-opacity:1"
       d="m 490.5443,265.5934 -167.5,0 0,-151.875 167.5,0 0,151.875 z" /><path
       inkscape:connector-curvature="0"
       id="path858"
       style="fill:none;stroke:#231f20;stroke-width:0.625;stroke-linecap:butt;stroke-linejoin:miter;stroke-miterlimit:4;stroke-dasharray:none;stroke-opacity:1"
       d="m 474.3455,113.7184 0,7.5" /><path
       inkscape:connector-curvature="0"
       id="path862"
       style="fill:none;stroke:#231f20;stroke-width:0.625;stroke-linecap:butt;stroke-linejoin:miter;stroke-miterlimit:4;stroke-dasharray:none;stroke-opacity:1"
       d="m 444.0856,113.7184 0,7.5" /><path
       inkscape:connector-curvature="0"
       id="path866"
       style="fill:none;stroke:#231f20;stroke-width:0.625;stroke-linecap:butt;stroke-linejoin:miter;stroke-miterlimit:4;stroke-dasharray:none;stroke-opacity:1"
       d="m 413.8256,113.7184 0,7.5" /><path
       inkscape:connector-curvature="0"
       id="path870"
       style="fill:none;stroke:#231f20;stroke-width:0.625;stroke-linecap:butt;stroke-linejoin:miter;stroke-miterlimit:4;stroke-dasharray:none;stroke-opacity:1"
       d="m 383.5631,113.7184 0,7.5" /><path
       inkscape:connector-curvature="0"
       id="path874"
       style="fill:none;stroke:#231f20;stroke-width:0.625;stroke-linecap:butt;stroke-linejoin:miter;stroke-miterlimit:4;stroke-dasharray:none;stroke-opacity:1"
       d="m 353.3031,113.7184 0,7.5" /><path
       inkscape:connector-curvature="0"
       id="path878"
       style="fill:none;stroke:#231f20;stroke-width:0.625;stroke-linecap:butt;stroke-linejoin:miter;stroke-miterlimit:4;stroke-dasharray:none;stroke-opacity:1"
       d="m 474.3455,258.0934 0,7.5" /><path
       inkscape:connector-curvature="0"
       id="path882"
       style="fill:none;stroke:#231f20;stroke-width:0.625;stroke-linecap:butt;stroke-linejoin:miter;stroke-miterlimit:4;stroke-dasharray:none;stroke-opacity:1"
       d="m 444.0856,258.0934 0,7.5" /><path
       inkscape:connector-curvature="0"
       id="path886"
       style="fill:none;stroke:#231f20;stroke-width:0.625;stroke-linecap:butt;stroke-linejoin:miter;stroke-miterlimit:4;stroke-dasharray:none;stroke-opacity:1"
       d="m 413.8256,258.0934 0,7.5" /><path
       inkscape:connector-curvature="0"
       id="path890"
       style="fill:none;stroke:#231f20;stroke-width:0.625;stroke-linecap:butt;stroke-linejoin:miter;stroke-miterlimit:4;stroke-dasharray:none;stroke-opacity:1"
       d="m 383.5631,258.0934 0,7.5" /><path
       inkscape:connector-curvature="0"
       id="path894"
       style="fill:none;stroke:#231f20;stroke-width:0.625;stroke-linecap:butt;stroke-linejoin:miter;stroke-miterlimit:4;stroke-dasharray:none;stroke-opacity:1"
       d="m 353.3031,258.0934 0,7.5" /><text
       transform="matrix(1.0000053,0,-0.20348909,-0.99999467,0,0)"
       style="font-variant:normal;font-weight:normal;font-stretch:normal;font-size:9.37494946px;font-family:Symbol;-inkscape-font-specification:Symbol;writing-mode:lr-tb;fill:#231f20;fill-opacity:1;fill-rule:nonzero;stroke:none"
       id="text896"
       x="400.89731"
       y="-91.218887"><tspan
         x="400.89731"
         y="-91.218887"
         id="tspan898">A</tspan></text>
<text
       transform="scale(1,-1)"
       style="font-variant:normal;font-weight:normal;font-stretch:normal;font-size:9.375px;font-family:'Trade Gothic';-inkscape-font-specification:TradeGothic;writing-mode:lr-tb;fill:#231f20;fill-opacity:1;fill-rule:nonzero;stroke:none"
       id="text900"
       x="468.61761"
       y="-102.4684"><tspan
         x="468.61761 474.34573 438.3551 444.08322 408.09259 413.82074"
         y="-102.4684"
         sodipodi:role="line"
         id="tspan902">201612</tspan><tspan
         x="343.03009 348.75821 353.97073 358.65823 363.87073 366.47699 371.16449 374.02386 379.23636 383.92386 386.78323 391.47073 394.59259 399.28009 404.49261 409.70511 414.39261 417.25198 428.68948 431.81134 436.49884 439.62073 444.30823 449.52072 453.68323"
         y="-91.218399"
         sodipodi:role="line"
         id="tspan904">Ângulo de ataque, (graus)</tspan><tspan
         x="193.97697"
         y="-75.590279"
         id="tspan906">(</tspan></text>
<text
       transform="scale(1,-1)"
       style="font-style:italic;font-variant:normal;font-weight:normal;font-stretch:normal;font-size:9.375px;font-family:Times;-inkscape-font-specification:Times-Italic;writing-mode:lr-tb;fill:#231f20;fill-opacity:1;fill-rule:nonzero;stroke:none"
       id="text908"
       x="197.09885"
       y="-75.590279"><tspan
         x="197.09885"
         y="-75.590279"
         id="tspan910">b</tspan></text>
<text
       transform="scale(1,-1)"
       style="font-variant:normal;font-weight:normal;font-stretch:normal;font-size:9.375px;font-family:'Trade Gothic';-inkscape-font-specification:TradeGothic;writing-mode:lr-tb;fill:#231f20;fill-opacity:1;fill-rule:nonzero;stroke:none"
       id="text912"
       x="201.78635"
       y="-75.590279"><tspan
         x="201.78635 204.90822 207.76759 213.49573 218.18323 222.87073 225.9926 228.59885 233.28635 235.89259 240.58009 245.7926 248.91447 253.60197 256.46133 261.67386 266.36136 269.22073 273.90823 277.03009 280.15198 284.83948 289.00198 292.12384 296.81134"
         y="-75.590279"
         sodipodi:role="line"
         id="tspan914">) Coeficiente de arrasto </tspan></text>
<text
       transform="scale(1,-1)"
       style="font-style:italic;font-variant:normal;font-weight:normal;font-stretch:normal;font-size:9.375px;font-family:'Trade Gothic';-inkscape-font-specification:TradeGothic-Oblique;writing-mode:lr-tb;fill:#231f20;fill-opacity:1;fill-rule:nonzero;stroke:none"
       id="text916"
       x="299.67072"
       y="-75.590279"><tspan
         x="299.67072 303.83322 308.52072 311.64261 315.80508 321.01761"
         y="-75.590279"
         sodipodi:role="line"
         id="tspan918">versus</tspan></text>
<text
       transform="scale(1,-1)"
       style="font-variant:normal;font-weight:normal;font-stretch:normal;font-size:9.375px;font-family:'Trade Gothic';-inkscape-font-specification:TradeGothic;writing-mode:lr-tb;fill:#231f20;fill-opacity:1;fill-rule:nonzero;stroke:none"
       id="text920"
       x="328.03946"
       y="-75.590279"><tspan
         x="328.03946 332.72696 337.93948 342.62698 347.83948 350.44571 355.13321 357.99258 363.20511 367.89261 370.75198 375.43948 378.56134 383.24884 388.46133 393.67386"
         y="-75.590279"
         sodipodi:role="line"
         id="tspan922">ângulo de ataque</tspan><tspan
         x="380.69885 350.43634 320.17386"
         y="-102.4684"
         sodipodi:role="line"
         id="tspan924">8400</tspan><tspan
         x="328.03946"
         y="inf"
         sodipodi:role="line"
         id="tspan944" /></text>
<path
       inkscape:connector-curvature="0"
       id="path972"
       style="fill:none;stroke:#1a64b7;stroke-width:1.25;stroke-linecap:butt;stroke-linejoin:miter;stroke-miterlimit:4;stroke-dasharray:none;stroke-opacity:1"
       d="m 94.2937,160.5934 c 29.706,0 51.303,6.2 72.5,26.875 25.629,24.997 48.171,66.152 51.25,78.125" /><path
       inkscape:connector-curvature="0"
       id="path976"
       style="fill:#ffffff;fill-opacity:1;fill-rule:nonzero;stroke:none"
       d="m 94.2937,165.8547 4.714,-4.714 -4.714,-4.715 -4.714,4.715 4.714,4.714 z" /><path
       inkscape:connector-curvature="0"
       id="path980"
       style="fill:none;stroke:#1a64b7;stroke-width:0.625;stroke-linecap:butt;stroke-linejoin:miter;stroke-miterlimit:4;stroke-dasharray:none;stroke-opacity:1"
       d="m 94.2937,165.8547 4.714,-4.714 -4.714,-4.715 -4.714,4.715 4.714,4.714 z" /><path
       inkscape:connector-curvature="0"
       id="path984"
       style="fill:#ffffff;fill-opacity:1;fill-rule:nonzero;stroke:none"
       d="m 107.5749,167.5734 4.714,-4.714 -4.714,-4.715 -4.714,4.715 4.714,4.714 z" /><path
       inkscape:connector-curvature="0"
       id="path988"
       style="fill:none;stroke:#1a64b7;stroke-width:0.625;stroke-linecap:butt;stroke-linejoin:miter;stroke-miterlimit:4;stroke-dasharray:none;stroke-opacity:1"
       d="m 107.5749,167.5734 4.714,-4.714 -4.714,-4.715 -4.714,4.715 4.714,4.714 z" /><path
       inkscape:connector-curvature="0"
       id="path992"
       style="fill:#ffffff;fill-opacity:1;fill-rule:nonzero;stroke:none"
       d="m 123.3293,169.6828 4.714,-4.714 -4.714,-4.715 -4.714,4.715 4.714,4.714 z" /><path
       inkscape:connector-curvature="0"
       id="path996"
       style="fill:none;stroke:#1a64b7;stroke-width:0.625;stroke-linecap:butt;stroke-linejoin:miter;stroke-miterlimit:4;stroke-dasharray:none;stroke-opacity:1"
       d="m 123.3293,169.6828 4.714,-4.714 -4.714,-4.715 -4.714,4.715 4.714,4.714 z" /><path
       inkscape:connector-curvature="0"
       id="path1000"
       style="fill:#ffffff;fill-opacity:1;fill-rule:nonzero;stroke:none"
       d="m 138.9543,174.0578 4.714,-4.714 -4.714,-4.715 -4.714,4.715 4.714,4.714 z" /><path
       inkscape:connector-curvature="0"
       id="path1004"
       style="fill:none;stroke:#1a64b7;stroke-width:0.625;stroke-linecap:butt;stroke-linejoin:miter;stroke-miterlimit:4;stroke-dasharray:none;stroke-opacity:1"
       d="m 138.9543,174.0578 4.714,-4.714 -4.714,-4.715 -4.714,4.715 4.714,4.714 z" /><path
       inkscape:connector-curvature="0"
       id="path1008"
       style="fill:#ffffff;fill-opacity:1;fill-rule:nonzero;stroke:none"
       d="m 152.7043,181.5578 4.714,-4.714 -4.714,-4.715 -4.714,4.715 4.714,4.714 z" /><path
       inkscape:connector-curvature="0"
       id="path1012"
       style="fill:none;stroke:#1a64b7;stroke-width:0.625;stroke-linecap:butt;stroke-linejoin:miter;stroke-miterlimit:4;stroke-dasharray:none;stroke-opacity:1"
       d="m 152.7043,181.5578 4.714,-4.714 -4.714,-4.715 -4.714,4.715 4.714,4.714 z" /><path
       inkscape:connector-curvature="0"
       id="path1016"
       style="fill:#ffffff;fill-opacity:1;fill-rule:nonzero;stroke:none"
       d="m 168.9543,194.6828 4.714,-4.714 -4.714,-4.715 -4.714,4.715 4.714,4.714 z" /><path
       inkscape:connector-curvature="0"
       id="path1020"
       style="fill:none;stroke:#1a64b7;stroke-width:0.625;stroke-linecap:butt;stroke-linejoin:miter;stroke-miterlimit:4;stroke-dasharray:none;stroke-opacity:1"
       d="m 168.9543,194.6828 4.714,-4.714 -4.714,-4.715 -4.714,4.715 4.714,4.714 z" /><path
       inkscape:connector-curvature="0"
       id="path1024"
       style="fill:#ffffff;fill-opacity:1;fill-rule:nonzero;stroke:none"
       d="m 184.5793,214.0578 4.714,-4.714 -4.714,-4.715 -4.714,4.715 4.714,4.714 z" /><path
       inkscape:connector-curvature="0"
       id="path1028"
       style="fill:none;stroke:#1a64b7;stroke-width:0.625;stroke-linecap:butt;stroke-linejoin:miter;stroke-miterlimit:4;stroke-dasharray:none;stroke-opacity:1"
       d="m 184.5793,214.0578 4.714,-4.714 -4.714,-4.715 -4.714,4.715 4.714,4.714 z" /><path
       inkscape:connector-curvature="0"
       id="path1032"
       style="fill:#ffffff;fill-opacity:1;fill-rule:nonzero;stroke:none"
       d="m 199.5793,234.6828 4.714,-4.714 -4.714,-4.715 -4.714,4.715 4.714,4.714 z" /><path
       inkscape:connector-curvature="0"
       id="path1036"
       style="fill:none;stroke:#1a64b7;stroke-width:0.625;stroke-linecap:butt;stroke-linejoin:miter;stroke-miterlimit:4;stroke-dasharray:none;stroke-opacity:1"
       d="m 199.5793,234.6828 4.714,-4.714 -4.714,-4.715 -4.714,4.715 4.714,4.714 z" /><path
       inkscape:connector-curvature="0"
       id="path1040"
       style="fill:#ffffff;fill-opacity:1;fill-rule:nonzero;stroke:none"
       d="m 217.0793,269.6828 4.714,-4.714 -4.714,-4.715 -4.714,4.715 4.714,4.714 z" /><path
       inkscape:connector-curvature="0"
       id="path1044"
       style="fill:none;stroke:#1a64b7;stroke-width:0.625;stroke-linecap:butt;stroke-linejoin:miter;stroke-miterlimit:4;stroke-dasharray:none;stroke-opacity:1"
       d="m 217.0793,269.6828 4.714,-4.714 -4.714,-4.715 -4.714,4.715 4.714,4.714 z" /><path
       inkscape:connector-curvature="0"
       id="path1048"
       style="fill:none;stroke:#1a64b7;stroke-width:1.25;stroke-linecap:butt;stroke-linejoin:miter;stroke-miterlimit:4;stroke-dasharray:none;stroke-opacity:1"
       d="m 323.0443,136.8434 c 8.75,0 16.665,4.167 20,15 3.332,10.833 5.832,15.833 10,17.917 4.165,2.083 10.415,5.416 16.665,8.75 6.25,3.333 19.168,17.083 26.668,27.083 7.5,10 15.832,25 20.417,37.083" /><path
       inkscape:connector-curvature="0"
       id="path1052"
       style="fill:#ffffff;fill-opacity:1;fill-rule:nonzero;stroke:none"
       d="m 321.1412,142.5991 4.715,-4.714 -4.715,-4.715 -4.714,4.715 4.714,4.714 z" /><path
       inkscape:connector-curvature="0"
       id="path1056"
       style="fill:none;stroke:#1a64b7;stroke-width:0.625;stroke-linecap:butt;stroke-linejoin:miter;stroke-miterlimit:4;stroke-dasharray:none;stroke-opacity:1"
       d="m 321.1412,142.5991 4.715,-4.714 -4.715,-4.715 -4.714,4.715 4.714,4.714 z" /><path
       inkscape:connector-curvature="0"
       id="path1060"
       style="fill:#ffffff;fill-opacity:1;fill-rule:nonzero;stroke:none"
       d="m 329.9181,141.3234 4.714,-4.714 -4.714,-4.715 -4.714,4.715 4.714,4.714 z" /><path
       inkscape:connector-curvature="0"
       id="path1064"
       style="fill:none;stroke:#1a64b7;stroke-width:0.625;stroke-linecap:butt;stroke-linejoin:miter;stroke-miterlimit:4;stroke-dasharray:none;stroke-opacity:1"
       d="m 329.9181,141.3234 4.714,-4.714 -4.714,-4.715 -4.714,4.715 4.714,4.714 z" /><path
       inkscape:connector-curvature="0"
       id="path1068"
       style="fill:#ffffff;fill-opacity:1;fill-rule:nonzero;stroke:none"
       d="m 337.0274,148.0422 4.714,-4.714 -4.714,-4.715 -4.714,4.715 4.714,4.714 z" /><path
       inkscape:connector-curvature="0"
       id="path1072"
       style="fill:none;stroke:#1a64b7;stroke-width:0.625;stroke-linecap:butt;stroke-linejoin:miter;stroke-miterlimit:4;stroke-dasharray:none;stroke-opacity:1"
       d="m 337.0274,148.0422 4.714,-4.714 -4.714,-4.715 -4.714,4.715 4.714,4.714 z" /><path
       inkscape:connector-curvature="0"
       id="path1076"
       style="fill:#ffffff;fill-opacity:1;fill-rule:nonzero;stroke:none"
       d="m 346.9749,165.099 4.714,-4.714 -4.714,-4.713 -4.714,4.713 4.714,4.714 z" /><path
       inkscape:connector-curvature="0"
       id="path1080"
       style="fill:none;stroke:#1a64b7;stroke-width:0.625;stroke-linecap:butt;stroke-linejoin:miter;stroke-miterlimit:4;stroke-dasharray:none;stroke-opacity:1"
       d="m 346.9749,165.099 4.714,-4.714 -4.714,-4.714 -4.714,4.714 4.714,4.714 z" /><path
       inkscape:connector-curvature="0"
       id="path1084"
       style="fill:#ffffff;fill-opacity:1;fill-rule:nonzero;stroke:none"
       d="m 352.4181,174.3178 4.714,-4.714 -4.714,-4.713 -4.714,4.713 4.714,4.714 z" /><path
       inkscape:connector-curvature="0"
       id="path1088"
       style="fill:none;stroke:#1a64b7;stroke-width:0.625;stroke-linecap:butt;stroke-linejoin:miter;stroke-miterlimit:4;stroke-dasharray:none;stroke-opacity:1"
       d="m 352.4181,174.3178 4.714,-4.714 -4.714,-4.714 -4.714,4.714 4.714,4.714 z" /><path
       inkscape:connector-curvature="0"
       id="path1092"
       style="fill:#ffffff;fill-opacity:1;fill-rule:nonzero;stroke:none"
       d="m 367.8087,183.0153 4.714,-4.714 -4.714,-4.713 -4.714,4.713 4.714,4.714 z" /><path
       inkscape:connector-curvature="0"
       id="path1096"
       style="fill:none;stroke:#1a64b7;stroke-width:0.625;stroke-linecap:butt;stroke-linejoin:miter;stroke-miterlimit:4;stroke-dasharray:none;stroke-opacity:1"
       d="m 367.8087,183.0153 4.714,-4.714 -4.714,-4.714 -4.714,4.714 4.714,4.714 z" /><path
       inkscape:connector-curvature="0"
       id="path1100"
       style="fill:#ffffff;fill-opacity:1;fill-rule:nonzero;stroke:none"
       d="m 384.9181,195.984 4.714,-4.714 -4.714,-4.713 -4.714,4.713 4.714,4.714 z" /><path
       inkscape:connector-curvature="0"
       id="path1104"
       style="fill:none;stroke:#1a64b7;stroke-width:0.625;stroke-linecap:butt;stroke-linejoin:miter;stroke-miterlimit:4;stroke-dasharray:none;stroke-opacity:1"
       d="m 384.9181,195.984 4.714,-4.714 -4.714,-4.714 -4.714,4.714 4.714,4.714 z" /><path
       inkscape:connector-curvature="0"
       id="path1108"
       style="fill:#ffffff;fill-opacity:1;fill-rule:nonzero;stroke:none"
       d="m 401.1937,218.0422 4.714,-4.714 -4.714,-4.715 -4.714,4.715 4.714,4.714 z" /><path
       inkscape:connector-curvature="0"
       id="path1112"
       style="fill:none;stroke:#1a64b7;stroke-width:0.625;stroke-linecap:butt;stroke-linejoin:miter;stroke-miterlimit:4;stroke-dasharray:none;stroke-opacity:1"
       d="m 401.1937,218.0422 4.714,-4.714 -4.714,-4.715 -4.714,4.715 4.714,4.714 z" /><path
       inkscape:connector-curvature="0"
       id="path1116"
       style="fill:#ffffff;fill-opacity:1;fill-rule:nonzero;stroke:none"
       d="m 416.1412,245.099 4.714,-4.714 -4.714,-4.713 -4.714,4.713 4.714,4.714 z" /><path
       inkscape:connector-curvature="0"
       id="path1120"
       style="fill:none;stroke:#1a64b7;stroke-width:0.625;stroke-linecap:butt;stroke-linejoin:miter;stroke-miterlimit:4;stroke-dasharray:none;stroke-opacity:1"
       d="m 416.1412,245.099 4.714,-4.714 -4.714,-4.714 -4.714,4.714 4.714,4.714 z" /><text
       transform="scale(1,-1)"
       style="font-variant:normal;font-weight:normal;font-stretch:normal;font-size:9.375px;font-family:'Trade Gothic';-inkscape-font-specification:TradeGothic;writing-mode:lr-tb;fill:#231f20;fill-opacity:1;fill-rule:nonzero;stroke:none"
       id="text1122"
       x="355.73529"
       y="-151.4259"><tspan
         x="355.73529 361.46344 366.15091 370.83841 375.52591 380.21341 383.07278 388.28531 392.97281 395.83218 400.51968 404.68219 409.36969 414.05719 418.74469 426.55405 431.24155 436.45404 439.57593 444.26343 447.1228 449.72906 454.41656 462.22592 464.83218 470.04468 474.73218"
         y="-151.4259"
         sodipodi:role="line"
         id="tspan1124">Seção de escoamento laminar</tspan><tspan
         x="382.28531 385.40717 392.17593 397.90405 403.63217 409.36029 412.21967 417.94781"
         y="-140.80403"
         sodipodi:role="line"
         id="tspan1126">(NACA 66</tspan></text>
<text
       transform="scale(1,-1)"
       style="font-variant:normal;font-weight:normal;font-stretch:normal;font-size:6.875px;font-family:'Trade Gothic';-inkscape-font-specification:TradeGothic;writing-mode:lr-tb;fill:#231f20;fill-opacity:1;fill-rule:nonzero;stroke:none"
       id="text1128"
       x="423.6752"
       y="-138.3009"><tspan
         x="423.6752"
         y="-138.3009"
         id="tspan1130">2</tspan></text>
<text
       transform="scale(1,-1)"
       style="font-variant:normal;font-weight:normal;font-stretch:normal;font-size:9.375px;font-family:'Trade Gothic';-inkscape-font-specification:TradeGothic;writing-mode:lr-tb;fill:#231f20;fill-opacity:1;fill-rule:nonzero;stroke:none"
       id="text1132"
       x="427.8757"
       y="-140.8009"><tspan
         x="427.8757 430.99759 436.72571 442.45383 448.18195"
         y="-140.8009"
         sodipodi:role="line"
         id="tspan1134">-215)</tspan><tspan
         x="146.56009 152.28821 156.97571 161.66321 166.35071 171.03821 173.89758 178.58508 183.27258 188.48508 192.64758 197.33508 202.54758 207.23508 209.84132 214.52882 219.74133 224.42883"
         y="-151.42278"
         sodipodi:role="line"
         id="tspan1136">Seção convencional</tspan><tspan
         x="155.95383 159.07571 165.84445 171.57257 177.3007 183.02882 185.8882 191.61633 197.34445 203.07257 208.8007 214.52882"
         y="-140.8009"
         sodipodi:role="line"
         id="tspan1138">(NACA 23015)</tspan></text>
<g
       id="g1156"><g
         id="g1158"
         clip-path="url(#clipPath1160)"><text
           transform="matrix(1,0,0,-0.99812118,56.6929,55.0584)"
           style="font-variant:normal;font-weight:bold;font-stretch:normal;font-size:10.64500046px;font-family:'Helvetica 55 Roman';-inkscape-font-specification:HelveticaNeue-Bold;writing-mode:lr-tb;fill:#231f20;fill-opacity:1;fill-rule:nonzero;stroke:none"
           id="text1164"><tspan
             x="0 6.3124852 9.0588951 15.56299 18.522301 22.067085 27.985704 30.945015 36.863636 42.782253"
             y="0"
             sodipodi:role="line"
             id="tspan1166">Fig. 9.17 </tspan></text>
<text
           transform="matrix(1,0,0,-0.99812118,103.03059,55.0584)"
           style="font-variant:normal;font-weight:normal;font-stretch:normal;font-size:10.64500046px;font-family:'Helvetica 55 Roman';-inkscape-font-specification:HelveticaNeue-Roman;writing-mode:lr-tb;fill:#231f20;fill-opacity:1;fill-rule:nonzero;stroke:none"
           id="text1168"><tspan
             x="0 7.6856899 13.79592 19.512285 22.663204 25.026396 30.74276 33.105949 38.822315 44.740936 48.094109 53.810474 59.132977 62.677761 68.990242 74.706612 78.251396 83.573898 89.492516 94.815018 98.16819 103.88455 109.80318 113.15635 118.87272 124.58908 130.30545 136.41568 139.96046 145.67682 149.2216 155.53409 161.25046 164.79524 170.51161 174.0564 177.60118 183.31755 188.64005 191.99323 198.10345 201.64824 207.36459 216.44478 219.98956 223.14049 229.05911 234.97774 240.69409 246.41046 252.52069 256.06546 262.37796 268.48819 272.03299 277.74933 283.66797 289.7782 295.69681 298.06 304.17023 307.71503 314.0275 319.74387 323.28864 329.005 332.35818 338.07455 344.38705 350.30566 356.02203 359.5668 365.8793 371.59567 375.14044 380.85681"
             y="0"
             sodipodi:role="line"
             id="tspan1170">Coeficientes de sustentação e de arrasto em função do ângulo de ataque para </tspan></text>
<text
           transform="matrix(1,0,0,-1,56.6929,42.5209)"
           style="font-variant:normal;font-weight:normal;font-stretch:normal;font-size:10.625px;font-family:'Helvetica 55 Roman';-inkscape-font-specification:HelveticaNeue-Roman;writing-mode:lr-tb;fill:#231f20;fill-opacity:1;fill-rule:nonzero;stroke:none"
           id="text1172"><tspan
             x="0 6.3006248 12.208125 17.91375 23.22625 26.18 31.4925 37.198124 42.903751 49.002499 54.708126 60.020626 62.974377 69.275002 74.980621 77.934372 83.639999 89.345627 92.883751 98.982498 102.1275 108.22625 110.585 112.94375 119.0425 121.99625 128.29688 134.0025 137.54062 143.24625"
             y="0"
             sodipodi:role="line"
             id="tspan1174">duas seções de aerofólio para </tspan></text>
<text
           transform="matrix(1,0,0,-1,202.8929,42.5209)"
           style="font-style:italic;font-variant:normal;font-weight:normal;font-stretch:normal;font-size:10.625px;font-family:'Helvetica 55 Roman';-inkscape-font-specification:HelveticaNeue-Italic;writing-mode:lr-tb;fill:#231f20;fill-opacity:1;fill-rule:nonzero;stroke:none"
           id="text1176"><tspan
             x="0 7.2781248"
             y="0"
             sodipodi:role="line"
             id="tspan1178">Re</tspan></text>
<text
           transform="matrix(1,0,0,-1,215.8737,39.0146)"
           style="font-style:italic;font-variant:normal;font-weight:normal;font-stretch:normal;font-size:6.1624999px;font-family:'Helvetica 55 Roman';-inkscape-font-specification:HelveticaNeue-Italic;writing-mode:lr-tb;fill:#231f20;fill-opacity:1;fill-rule:nonzero;stroke:none"
           id="text1180"><tspan
             x="0"
             y="0"
             id="tspan1182">c</tspan></text>
<text
           transform="matrix(1,0,0,-1,222.13655,42.5209)"
           style="font-variant:normal;font-weight:normal;font-stretch:normal;font-size:10.625px;font-family:'Mathematical Pi';-inkscape-font-specification:MathematicalPi-One;writing-mode:lr-tb;fill:#231f20;fill-opacity:1;fill-rule:nonzero;stroke:none"
           id="text1184"><tspan
             x="0"
             y="0"
             id="tspan1186"></tspan></text>
<text
           transform="matrix(1,0,0,-1,233.94093,42.5209)"
           style="font-variant:normal;font-weight:normal;font-stretch:normal;font-size:10.625px;font-family:'Helvetica 55 Roman';-inkscape-font-specification:HelveticaNeue-Roman;writing-mode:lr-tb;fill:#231f20;fill-opacity:1;fill-rule:nonzero;stroke:none"
           id="text1188"><tspan
             x="0 5.9074998"
             y="0"
             sodipodi:role="line"
             id="tspan1190">9 </tspan></text>
<text
           transform="matrix(1,0,0,-1,242.80218,42.5209)"
           style="font-variant:normal;font-weight:normal;font-stretch:normal;font-size:10.625px;font-family:'Mathematical Pi';-inkscape-font-specification:MathematicalPi-One;writing-mode:lr-tb;fill:#231f20;fill-opacity:1;fill-rule:nonzero;stroke:none"
           id="text1192"><tspan
             x="0"
             y="0"
             id="tspan1194"></tspan></text>
<text
           transform="matrix(1,0,0,-1,254.60655,42.5209)"
           style="font-variant:normal;font-weight:normal;font-stretch:normal;font-size:10.625px;font-family:'Helvetica 55 Roman';-inkscape-font-specification:HelveticaNeue-Roman;writing-mode:lr-tb;fill:#231f20;fill-opacity:1;fill-rule:nonzero;stroke:none"
           id="text1196"><tspan
             x="0 5.9074998"
             y="0"
             sodipodi:role="line"
             id="tspan1198">10</tspan></text>
<text
           transform="matrix(1,0,0,-1,266.4213,46.0271)"
           style="font-variant:normal;font-weight:normal;font-stretch:normal;font-size:6.1624999px;font-family:'Helvetica 55 Roman';-inkscape-font-specification:HelveticaNeue-Roman;writing-mode:lr-tb;fill:#231f20;fill-opacity:1;fill-rule:nonzero;stroke:none"
           id="text1200"><tspan
             x="0"
             y="0"
             id="tspan1202">6</tspan></text>
<text
           transform="matrix(1,0,0,-1,269.8477,42.5209)"
           style="font-variant:normal;font-weight:normal;font-stretch:normal;font-size:10.625px;font-family:'Helvetica 55 Roman';-inkscape-font-specification:HelveticaNeue-Roman;writing-mode:lr-tb;fill:#231f20;fill-opacity:1;fill-rule:nonzero;stroke:none"
           id="text1204"><tspan
             x="0 2.9537499 5.9074998 8.6593752 16.139376 21.844999 28.145624 34.244373 39.556873 42.510624 48.811249 54.516876 57.470627 60.2225 66.129997 72.037498 74.789375 77.743126"
             y="0"
             sodipodi:role="line"
             id="tspan1206">. (Dados de [21].)</tspan></text>
</g></g></g></svg>