<?xml version="1.0" encoding="UTF-8" standalone="no"?>
<!-- Created with Inkscape (http://www.inkscape.org/) -->

<svg
   xmlns:dc="http://purl.org/dc/elements/1.1/"
   xmlns:cc="http://creativecommons.org/ns#"
   xmlns:rdf="http://www.w3.org/1999/02/22-rdf-syntax-ns#"
   xmlns:svg="http://www.w3.org/2000/svg"
   xmlns="http://www.w3.org/2000/svg"
   xmlns:sodipodi="http://sodipodi.sourceforge.net/DTD/sodipodi-0.dtd"
   xmlns:inkscape="http://www.inkscape.org/namespaces/inkscape"
   id="svg2"
   version="1.1"
   inkscape:version="0.91 r13725"
   xml:space="preserve"
   width="315.87894"
   height="399.44547"
   viewBox="0 0 315.87894 399.44546"
   sodipodi:docname="fig929.svg"><metadata
     id="metadata8"><rdf:RDF><cc:Work
         rdf:about=""><dc:format>image/svg+xml</dc:format><dc:type
           rdf:resource="http://purl.org/dc/dcmitype/StillImage" /><dc:title></dc:title></cc:Work></rdf:RDF></metadata><defs
     id="defs6"><clipPath
       clipPathUnits="userSpaceOnUse"
       id="clipPath18"><path
         d="m 0,0 1058.173,0 0,793.701 L 0,793.701 0,0 Z"
         id="path20"
         inkscape:connector-curvature="0" /></clipPath><clipPath
       clipPathUnits="userSpaceOnUse"
       id="clipPath30"><path
         d="m 980.208,708.66 -71.469,0 0,-17.532 71.469,0 0,17.532 z"
         id="path32"
         inkscape:connector-curvature="0" /></clipPath><clipPath
       clipPathUnits="userSpaceOnUse"
       id="clipPath42"><path
         d="m 980.208,787.797 -71.469,0 0,-79.137 71.469,0 0,79.137 z"
         id="path44"
         inkscape:connector-curvature="0" /></clipPath><clipPath
       clipPathUnits="userSpaceOnUse"
       id="clipPath58"><path
         d="m 0,0 1058.173,0 0,793.701 L 0,793.701 0,0 Z"
         id="path60"
         inkscape:connector-curvature="0" /></clipPath><clipPath
       clipPathUnits="userSpaceOnUse"
       id="clipPath92"><path
         d="m 93.708,73.089 456.885,0 0,224.595 -456.885,0 0,-224.595 z"
         id="path94"
         inkscape:connector-curvature="0" /></clipPath><clipPath
       clipPathUnits="userSpaceOnUse"
       id="clipPath622"><path
         d="m 0,0 1058.173,0 0,793.701 L 0,793.701 0,0 Z"
         id="path624"
         inkscape:connector-curvature="0" /></clipPath><clipPath
       clipPathUnits="userSpaceOnUse"
       id="clipPath748"><path
         d="m 701.667,426.123 272.277,0 0,268.362 -272.277,0 0,-268.362 z"
         id="path750"
         inkscape:connector-curvature="0" /></clipPath><clipPath
       clipPathUnits="userSpaceOnUse"
       id="clipPath1808"><path
         d="m 0,0 1058.173,0 0,793.701 L 0,793.701 0,0 Z"
         id="path1810"
         inkscape:connector-curvature="0" /></clipPath><clipPath
       clipPathUnits="userSpaceOnUse"
       id="clipPath1910"><path
         d="m 701.667,84.825 255.132,0 0,278.748 -255.132,0 0,-278.748 z"
         id="path1912"
         inkscape:connector-curvature="0" /></clipPath><clipPath
       clipPathUnits="userSpaceOnUse"
       id="clipPath2080"><path
         d="m 0,0 1058.173,0 0,793.701 L 0,793.701 0,0 Z"
         id="path2082"
         inkscape:connector-curvature="0" /></clipPath><clipPath
       clipPathUnits="userSpaceOnUse"
       id="clipPath1910-6"><path
         d="m 701.667,84.825 255.132,0 0,278.748 -255.132,0 0,-278.748 z"
         id="path1912-5"
         inkscape:connector-curvature="0" /></clipPath></defs><sodipodi:namedview
     pagecolor="#ffffff"
     bordercolor="#666666"
     borderopacity="1"
     objecttolerance="10"
     gridtolerance="10"
     guidetolerance="10"
     inkscape:pageopacity="0"
     inkscape:pageshadow="2"
     inkscape:window-width="1920"
     inkscape:window-height="1008"
     id="namedview4"
     showgrid="false"
     inkscape:zoom="1.6112175"
     inkscape:cx="356.20377"
     inkscape:cy="175.23064"
     inkscape:window-x="-5"
     inkscape:window-y="-5"
     inkscape:window-maximized="1"
     inkscape:current-layer="g10" /><g
     id="g10"
     inkscape:groupmode="layer"
     inkscape:label="Capítulo 9"
     transform="matrix(1.25,0,0,-1.25,-724.62296,500.73736)"><g
       id="g1822"
       transform="translate(612.93968,363.2193)"><path
         d="M 0,0 7.5,0"
         style="fill:none;stroke:#231f20;stroke-width:0.625;stroke-linecap:butt;stroke-linejoin:miter;stroke-miterlimit:4;stroke-dasharray:none;stroke-opacity:1"
         id="path1824"
         inkscape:connector-curvature="0" /></g><g
       id="g1826"
       transform="translate(612.93968,329.0537)"><path
         d="M 0,0 7.5,0"
         style="fill:none;stroke:#231f20;stroke-width:0.625;stroke-linecap:butt;stroke-linejoin:miter;stroke-miterlimit:4;stroke-dasharray:none;stroke-opacity:1"
         id="path1828"
         inkscape:connector-curvature="0" /></g><g
       id="g1830"
       transform="translate(612.93968,294.8844)"><path
         d="M 0,0 7.5,0"
         style="fill:none;stroke:#231f20;stroke-width:0.625;stroke-linecap:butt;stroke-linejoin:miter;stroke-miterlimit:4;stroke-dasharray:none;stroke-opacity:1"
         id="path1832"
         inkscape:connector-curvature="0" /></g><g
       id="g1834"
       transform="translate(612.93968,260.7181)"><path
         d="M 0,0 7.5,0"
         style="fill:none;stroke:#231f20;stroke-width:0.625;stroke-linecap:butt;stroke-linejoin:miter;stroke-miterlimit:4;stroke-dasharray:none;stroke-opacity:1"
         id="path1836"
         inkscape:connector-curvature="0" /></g><g
       id="g1838"
       transform="translate(612.93968,226.5501)"><path
         d="M 0,0 7.5,0"
         style="fill:none;stroke:#231f20;stroke-width:0.625;stroke-linecap:butt;stroke-linejoin:miter;stroke-miterlimit:4;stroke-dasharray:none;stroke-opacity:1"
         id="path1840"
         inkscape:connector-curvature="0" /></g><g
       id="g1842"
       transform="translate(821.27344,363.2193)"><path
         d="M 0,0 7.5,0"
         style="fill:none;stroke:#231f20;stroke-width:0.625;stroke-linecap:butt;stroke-linejoin:miter;stroke-miterlimit:4;stroke-dasharray:none;stroke-opacity:1"
         id="path1844"
         inkscape:connector-curvature="0" /></g><g
       id="g1846"
       transform="translate(821.27344,329.0537)"><path
         d="M 0,0 7.5,0"
         style="fill:none;stroke:#231f20;stroke-width:0.625;stroke-linecap:butt;stroke-linejoin:miter;stroke-miterlimit:4;stroke-dasharray:none;stroke-opacity:1"
         id="path1848"
         inkscape:connector-curvature="0" /></g><g
       id="g1850"
       transform="translate(821.27344,294.8844)"><path
         d="M 0,0 7.5,0"
         style="fill:none;stroke:#231f20;stroke-width:0.625;stroke-linecap:butt;stroke-linejoin:miter;stroke-miterlimit:4;stroke-dasharray:none;stroke-opacity:1"
         id="path1852"
         inkscape:connector-curvature="0" /></g><g
       id="g1854"
       transform="translate(821.27344,260.7181)"><path
         d="M 0,0 7.5,0"
         style="fill:none;stroke:#231f20;stroke-width:0.625;stroke-linecap:butt;stroke-linejoin:miter;stroke-miterlimit:4;stroke-dasharray:none;stroke-opacity:1"
         id="path1856"
         inkscape:connector-curvature="0" /></g><g
       id="g1858"
       transform="translate(821.27344,226.5501)"><path
         d="M 0,0 7.5,0"
         style="fill:none;stroke:#231f20;stroke-width:0.625;stroke-linecap:butt;stroke-linejoin:miter;stroke-miterlimit:4;stroke-dasharray:none;stroke-opacity:1"
         id="path1860"
         inkscape:connector-curvature="0" /></g><g
       id="g1862"
       transform="translate(821.27344,192.3826)"><path
         d="M 0,0 7.5,0"
         style="fill:none;stroke:#231f20;stroke-width:0.625;stroke-linecap:butt;stroke-linejoin:miter;stroke-miterlimit:4;stroke-dasharray:none;stroke-opacity:1"
         id="path1864"
         inkscape:connector-curvature="0" /></g><g
       id="g1866"
       transform="translate(792.79928,158.2175)"><path
         d="M 0,0 0,7.5"
         style="fill:none;stroke:#231f20;stroke-width:0.625;stroke-linecap:butt;stroke-linejoin:miter;stroke-miterlimit:4;stroke-dasharray:none;stroke-opacity:1"
         id="path1868"
         inkscape:connector-curvature="0" /></g><g
       id="g1870"
       transform="translate(756.8276,158.2175)"><path
         d="M 0,0 0,7.5"
         style="fill:none;stroke:#231f20;stroke-width:0.625;stroke-linecap:butt;stroke-linejoin:miter;stroke-miterlimit:4;stroke-dasharray:none;stroke-opacity:1"
         id="path1872"
         inkscape:connector-curvature="0" /></g><g
       id="g1874"
       transform="translate(720.856,158.2175)"><path
         d="M 0,0 0,7.5"
         style="fill:none;stroke:#231f20;stroke-width:0.625;stroke-linecap:butt;stroke-linejoin:miter;stroke-miterlimit:4;stroke-dasharray:none;stroke-opacity:1"
         id="path1876"
         inkscape:connector-curvature="0" /></g><g
       id="g1878"
       transform="translate(684.88664,158.2175)"><path
         d="M 0,0 0,7.5"
         style="fill:none;stroke:#231f20;stroke-width:0.625;stroke-linecap:butt;stroke-linejoin:miter;stroke-miterlimit:4;stroke-dasharray:none;stroke-opacity:1"
         id="path1880"
         inkscape:connector-curvature="0" /></g><g
       id="g1882"
       transform="translate(648.91258,158.2175)"><path
         d="M 0,0 0,7.5"
         style="fill:none;stroke:#231f20;stroke-width:0.625;stroke-linecap:butt;stroke-linejoin:miter;stroke-miterlimit:4;stroke-dasharray:none;stroke-opacity:1"
         id="path1884"
         inkscape:connector-curvature="0" /></g><g
       id="g1886"
       transform="translate(792.79928,389.8849)"><path
         d="M 0,0 0,7.5"
         style="fill:none;stroke:#231f20;stroke-width:0.625;stroke-linecap:butt;stroke-linejoin:miter;stroke-miterlimit:4;stroke-dasharray:none;stroke-opacity:1"
         id="path1888"
         inkscape:connector-curvature="0" /></g><g
       id="g1890"
       transform="translate(756.8276,389.8849)"><path
         d="M 0,0 0,7.5"
         style="fill:none;stroke:#231f20;stroke-width:0.625;stroke-linecap:butt;stroke-linejoin:miter;stroke-miterlimit:4;stroke-dasharray:none;stroke-opacity:1"
         id="path1892"
         inkscape:connector-curvature="0" /></g><g
       id="g1894"
       transform="translate(720.856,389.8849)"><path
         d="M 0,0 0,7.5"
         style="fill:none;stroke:#231f20;stroke-width:0.625;stroke-linecap:butt;stroke-linejoin:miter;stroke-miterlimit:4;stroke-dasharray:none;stroke-opacity:1"
         id="path1896"
         inkscape:connector-curvature="0" /></g><g
       id="g1898"
       transform="translate(684.88664,389.8849)"><path
         d="M 0,0 0,7.5"
         style="fill:none;stroke:#231f20;stroke-width:0.625;stroke-linecap:butt;stroke-linejoin:miter;stroke-miterlimit:4;stroke-dasharray:none;stroke-opacity:1"
         id="path1900"
         inkscape:connector-curvature="0" /></g><g
       id="g1902"
       transform="translate(648.91258,389.8849)"><path
         d="M 0,0 0,7.5"
         style="fill:none;stroke:#231f20;stroke-width:0.625;stroke-linecap:butt;stroke-linejoin:miter;stroke-miterlimit:4;stroke-dasharray:none;stroke-opacity:1"
         id="path1904"
         inkscape:connector-curvature="0" /></g><g
       transform="translate(-122.93592,40.722699)"
       id="g1906"><g
         id="g1908"
         clip-path="url(#clipPath1910-6)"><g
           id="g1914"
           transform="translate(920.0419,277.4954)"><path
             d="m 0,0 c -56.665,0 -90,-20 -115,-57.5 -21.604,-32.405 -30.554,-53.75 -69.166,-53.75 l 0,-17.084 c 2.5,-2.5 4.167,-5 8.333,-5 22.5,0 35.833,43.334 54.168,66.668 C -111.953,-54.303 -70,37.5 -30.833,37.5 L 0,0 Z"
             style="fill:#cbd4ee;fill-opacity:1;fill-rule:nonzero;stroke:none"
             id="path1916"
             inkscape:connector-curvature="0" /></g><g
           id="g1918"
           transform="translate(735.8756,149.1623)"><path
             d="m 0,0 c 2.5,-2.5 4.167,-5 8.334,-5 22.5,0 35.832,43.333 54.167,66.666 9.713,12.364 51.665,104.168 90.833,104.168"
             style="fill:none;stroke:#1a64b7;stroke-width:1.25;stroke-linecap:butt;stroke-linejoin:miter;stroke-miterlimit:4;stroke-dasharray:none;stroke-opacity:1"
             id="path1920"
             inkscape:connector-curvature="0" /></g><g
           id="g1922"
           transform="translate(920.0419,277.4954)"><path
             d="m 0,0 c -56.665,0 -90,-20 -115,-57.5 -21.604,-32.405 -30.554,-53.75 -69.166,-53.75"
             style="fill:none;stroke:#1a64b7;stroke-width:1.25;stroke-linecap:butt;stroke-linejoin:miter;stroke-miterlimit:4;stroke-dasharray:none;stroke-opacity:1"
             id="path1924"
             inkscape:connector-curvature="0" /></g><g
           id="g1926"
           transform="translate(951.7096,356.6625)"><path
             d="m 0,0 -215.834,0 0,-239.167 215.834,0 L 0,0 Z"
             style="fill:none;stroke:#231f20;stroke-width:0.625;stroke-linecap:butt;stroke-linejoin:miter;stroke-miterlimit:4;stroke-dasharray:none;stroke-opacity:1"
             id="path1928"
             inkscape:connector-curvature="0" /></g><g
           id="g1930"
           transform="translate(735.8756,163.7448)"><path
             d="m 0,0 c 11.876,0 65.521,-3.02 92.709,24.167 27.187,27.188 76.25,24.375 96.875,20.625"
             style="fill:none;stroke:#1a64b7;stroke-width:1.25;stroke-linecap:butt;stroke-linejoin:miter;stroke-miterlimit:4;stroke-dasharray:5, 2.5, 5, 2.5;stroke-dashoffset:0;stroke-opacity:1"
             id="path1932"
             inkscape:connector-curvature="0" /></g><g
           id="g1934"
           transform="translate(793.3768,283.8114)"><path
             d="m 0,0 c 10.088,0 18.266,8.179 18.266,18.267 0,10.089 -8.178,18.268 -18.266,18.268 -10.089,0 -18.268,-8.179 -18.268,-18.268 C -18.268,8.179 -10.089,0 0,0 Z"
             style="fill:none;stroke:#231f20;stroke-width:0.625;stroke-linecap:butt;stroke-linejoin:miter;stroke-miterlimit:4;stroke-dasharray:none;stroke-opacity:1"
             id="path1936"
             inkscape:connector-curvature="0" /></g><g
           id="g1938"
           transform="translate(802.8544,307.54)"><path
             d="m 0,0 c -1.89,3.272 -5.427,5.476 -9.477,5.476 -5.554,0 -10.142,-4.141 -10.846,-9.503"
             style="fill:none;stroke:#1a64b7;stroke-width:0.625;stroke-linecap:butt;stroke-linejoin:miter;stroke-miterlimit:4;stroke-dasharray:none;stroke-opacity:1"
             id="path1940"
             inkscape:connector-curvature="0" /></g><g
           id="g1942"
           transform="translate(760.9562,304.4827)"><path
             d="M 0,0 C 0,0 4.722,-2.404 6.653,-2.404 4.722,-2.404 0,-4.807 0,-4.807 L 1.109,-2.494 0,0 Z"
             style="fill:#1a64b7;fill-opacity:1;fill-rule:nonzero;stroke:none"
             id="path1944"
             inkscape:connector-curvature="0" /></g><g
           id="g1946"
           transform="translate(764.3802,302.0786)"><path
             d="M 0,0 -18.542,0"
             style="fill:none;stroke:#1a64b7;stroke-width:1.25;stroke-linecap:butt;stroke-linejoin:miter;stroke-miterlimit:4;stroke-dasharray:none;stroke-opacity:1"
             id="path1948"
             inkscape:connector-curvature="0" /></g><g
           id="g1950"
           transform="translate(792.0939,335.8664)"><path
             d="m 0,0 c 0,0 1.282,3.55 1.282,5 0,-1.45 1.283,-5 1.283,-5 L 1.329,0.834 0,0 Z"
             style="fill:#1a64b7;fill-opacity:1;fill-rule:nonzero;stroke:none"
             id="path1952"
             inkscape:connector-curvature="0" /></g><g
           id="g1954"
           transform="translate(802.725,310.0961)"><path
             d="M 0,0 C 0,0 0.75,-3.699 1.501,-4.939 0.75,-3.699 -2.19,-1.331 -2.19,-1.331 L -0.704,-1.403 0,0 Z"
             style="fill:#1a64b7;fill-opacity:1;fill-rule:nonzero;stroke:none"
             id="path1956"
             inkscape:connector-curvature="0" /></g><g
           id="g1958"
           transform="translate(793.3768,337.6376)"><path
             d="M 0,0 0,-17.291"
             style="fill:none;stroke:#1a64b7;stroke-width:0.625;stroke-linecap:butt;stroke-linejoin:miter;stroke-miterlimit:4;stroke-dasharray:none;stroke-opacity:1"
             id="path1960"
             inkscape:connector-curvature="0" /></g><g
           id="g1962"
           transform="translate(891.3602,296.8087)"><path
             d="m 0,0 c 0,0 -3.758,-0.36 -5.069,-0.98 1.311,0.62 3.973,3.298 3.973,3.298 L -1.323,0.846 0,0 Z"
             style="fill:#231f20;fill-opacity:1;fill-rule:nonzero;stroke:none"
             id="path1964"
             inkscape:connector-curvature="0" /></g><g
           id="g1966"
           transform="translate(889.2118,297.2103)"><path
             d="M 0,0 C 0,0 8.122,4.661 15.83,5.078"
             style="fill:none;stroke:#231f20;stroke-width:0.625;stroke-linecap:butt;stroke-linejoin:miter;stroke-miterlimit:4;stroke-dasharray:none;stroke-opacity:1"
             id="path1968"
             inkscape:connector-curvature="0" /></g><text
           transform="matrix(1,0,0,-1,752.5954,291.9748)"
           style="font-style:italic;font-variant:normal;font-weight:normal;font-stretch:normal;font-size:9.375px;font-family:Times;-inkscape-font-specification:Times-Italic;writing-mode:lr-tb;fill:#231f20;fill-opacity:1;fill-rule:nonzero;stroke:none"
           id="text1970"><tspan
             x="0"
             y="0"
             id="tspan1972">V</tspan><tspan
             x="47.465626"
             y="-40.940624"
             id="tspan1974">F</tspan></text>
<text
           transform="matrix(1,0,0,-1,805.7871,330.4122)"
           style="font-style:italic;font-variant:normal;font-weight:normal;font-stretch:normal;font-size:6.875px;font-family:Times;-inkscape-font-specification:Times-Italic;writing-mode:lr-tb;fill:#231f20;fill-opacity:1;fill-rule:nonzero;stroke:none"
           id="text1976"><tspan
             x="0"
             y="0"
             id="tspan1978">L</tspan></text>
<text
           transform="matrix(0.97991787,0,-0.19940153,-0.97990742,789.1194,305.0998)"
           style="font-variant:normal;font-weight:normal;font-stretch:normal;font-size:9.56712818px;font-family:Symbol;-inkscape-font-specification:Symbol;writing-mode:lr-tb;fill:#231f20;fill-opacity:1;fill-rule:nonzero;stroke:none"
           id="text1980"><tspan
             x="0"
             y="0"
             id="tspan1982">W</tspan><tspan
             x="123.84648"
             y="219.93871"
             id="tspan1984">W</tspan></text>
<text
           transform="matrix(1,0,0,-1,899.5891,313.3286)"
           style="font-style:italic;font-variant:normal;font-weight:normal;font-stretch:normal;font-size:9.375px;font-family:Times;-inkscape-font-specification:Times-Italic;writing-mode:lr-tb;fill:#231f20;fill-opacity:1;fill-rule:nonzero;stroke:none"
           id="text1986"><tspan
             x="0"
             y="0"
             id="tspan1988">C</tspan></text>
<text
           transform="matrix(1,0,0,-1,905.8421,310.8286)"
           style="font-style:italic;font-variant:normal;font-weight:normal;font-stretch:normal;font-size:6.875px;font-family:Times;-inkscape-font-specification:Times-Italic;writing-mode:lr-tb;fill:#231f20;fill-opacity:1;fill-rule:nonzero;stroke:none"
           id="text1990"><tspan
             x="0"
             y="0"
             id="tspan1992">L</tspan></text>
<text
           transform="matrix(1,0,0,-1,925.0041,275.4129)"
           style="font-style:italic;font-variant:normal;font-weight:normal;font-stretch:normal;font-size:9.375px;font-family:Times;-inkscape-font-specification:Times-Italic;writing-mode:lr-tb;fill:#231f20;fill-opacity:1;fill-rule:nonzero;stroke:none"
           id="text1994"><tspan
             x="0"
             y="0"
             id="tspan1996">C</tspan></text>
<text
           transform="matrix(1,0,0,-1,931.2571,272.9129)"
           style="font-style:italic;font-variant:normal;font-weight:normal;font-stretch:normal;font-size:6.875px;font-family:Times;-inkscape-font-specification:Times-Italic;writing-mode:lr-tb;fill:#231f20;fill-opacity:1;fill-rule:nonzero;stroke:none"
           id="text1998"><tspan
             x="0"
             y="0"
             id="tspan2000">L</tspan></text>
<text
           transform="matrix(1,0,0,-1,929.0185,204.9948)"
           style="font-style:italic;font-variant:normal;font-weight:normal;font-stretch:normal;font-size:9.375px;font-family:Times;-inkscape-font-specification:Times-Italic;writing-mode:lr-tb;fill:#231f20;fill-opacity:1;fill-rule:nonzero;stroke:none"
           id="text2002"><tspan
             x="0"
             y="0"
             id="tspan2004">C</tspan></text>
<text
           transform="matrix(1,0,0,-1,935.2715,202.4948)"
           style="font-style:italic;font-variant:normal;font-weight:normal;font-stretch:normal;font-size:6.875px;font-family:Times;-inkscape-font-specification:Times-Italic;writing-mode:lr-tb;fill:#231f20;fill-opacity:1;fill-rule:nonzero;stroke:none"
           id="text2006"><tspan
             x="0"
             y="0"
             id="tspan2008">D</tspan></text>
<text
           transform="matrix(1,0,0,-1,910.1718,298.2248)"
           style="font-variant:normal;font-weight:normal;font-stretch:normal;font-size:9.375px;font-family:'Trade Gothic';-inkscape-font-specification:TradeGothic;writing-mode:lr-tb;fill:#231f20;fill-opacity:1;fill-rule:nonzero;stroke:none"
           id="text2010"><tspan
             x="0 5.2125001 9.8999996 12.50625 16.668751 21.356251 24.215626 29.428125"
             y="0"
             sodipodi:role="line"
             id="tspan2012">Faixa de</tspan><tspan
             x="5.0718751 10.284375 14.971875 20.184376 24.871876"
             y="10.621875"
             sodipodi:role="line"
             id="tspan2014">dados</tspan><tspan
             x="38.671875 2.7 -33.271873 -69.243752"
             y="191.98125"
             sodipodi:role="line"
             id="tspan2016">6543</tspan><tspan
             x="-117.40312 -111.15 -106.4625 -102.3 -97.612503 -92.925003 -90.065628 -84.853127 -80.165627 -77.306252 -74.184372 -69.496872 -66.375 -61.6875 -57 -52.3125 -47.625 -44.765625"
             y="208.64999"
             sodipodi:role="line"
             id="tspan2018">Razão de rotação,</tspan></text>
<text
           transform="matrix(1,0,0,-1,873.9843,89.5748)"
           style="font-style:italic;font-variant:normal;font-weight:normal;font-stretch:normal;font-size:9.375px;font-family:Times;-inkscape-font-specification:Times-Italic;writing-mode:lr-tb;fill:#231f20;fill-opacity:1;fill-rule:nonzero;stroke:none"
           id="text2020"><tspan
             x="0"
             y="0"
             id="tspan2022">D</tspan></text>
<text
           transform="matrix(1,0,0,-1,880.75305,89.5748)"
           style="font-variant:normal;font-weight:normal;font-stretch:normal;font-size:9.375px;font-family:'Trade Gothic';-inkscape-font-specification:TradeGothic;writing-mode:lr-tb;fill:#231f20;fill-opacity:1;fill-rule:nonzero;stroke:none"
           id="text2024"><tspan
             x="0 2.60625"
             y="0"
             sodipodi:role="line"
             id="tspan2026">/2</tspan></text>
<text
           transform="matrix(1,0,0,-1,889.08743,89.5748)"
           style="font-style:italic;font-variant:normal;font-weight:normal;font-stretch:normal;font-size:9.375px;font-family:Times;-inkscape-font-specification:Times-Italic;writing-mode:lr-tb;fill:#231f20;fill-opacity:1;fill-rule:nonzero;stroke:none"
           id="text2028"><tspan
             x="0"
             y="0"
             id="tspan2030">V</tspan></text>
<text
           transform="matrix(1,0,0,-1,804.95618,106.24355)"
           style="font-variant:normal;font-weight:normal;font-stretch:normal;font-size:9.375px;font-family:'Trade Gothic';-inkscape-font-specification:TradeGothic;writing-mode:lr-tb;fill:#231f20;fill-opacity:1;fill-rule:nonzero;stroke:none"
           id="text2032"><tspan
             x="0 -35.971874 -71.943748"
             y="0"
             sodipodi:role="line"
             id="tspan2034">210</tspan><tspan
             x="-83.240623 -78.553123"
             y="-8.7468748"
             sodipodi:role="line"
             id="tspan2036">–2</tspan><tspan
             x="-78.553123"
             y="-41.043751"
             id="tspan2038">0</tspan><tspan
             x="-78.553123"
             y="-76.040627"
             id="tspan2040">2</tspan><tspan
             x="-78.553123"
             y="-110.41875"
             id="tspan2042">4</tspan><tspan
             x="-78.553123"
             y="-143.54063"
             id="tspan2044">6</tspan><tspan
             x="-78.553123"
             y="-178.53751"
             id="tspan2046">8</tspan><tspan
             x="-84.28125 -78.553123"
             y="-212.91563"
             sodipodi:role="line"
             id="tspan2048">10</tspan><tspan
             x="-84.28125 -78.553123"
             y="-246.66563"
             sodipodi:role="line"
             id="tspan2050">12</tspan></text>
<g
           id="g2052"
           transform="translate(735.8756,151.6599)"><path
             d="M 0,0 7.5,0"
             style="fill:none;stroke:#231f20;stroke-width:0.625;stroke-linecap:butt;stroke-linejoin:miter;stroke-miterlimit:4;stroke-dasharray:none;stroke-opacity:1"
             id="path2054"
             inkscape:connector-curvature="0" /></g><text
           transform="matrix(0,1,1,0,712.3344,218.9388)"
           style="font-style:italic;font-variant:normal;font-weight:normal;font-stretch:normal;font-size:9.375px;font-family:Times;-inkscape-font-specification:Times-Italic;writing-mode:lr-tb;fill:#231f20;fill-opacity:1;fill-rule:nonzero;stroke:none"
           id="text2056"><tspan
             x="0"
             y="0"
             id="tspan2058">C</tspan></text>
<text
           transform="matrix(0,1,1,0,714.8344,225.1917)"
           style="font-style:italic;font-variant:normal;font-weight:normal;font-stretch:normal;font-size:6.875px;font-family:Times;-inkscape-font-specification:Times-Italic;writing-mode:lr-tb;fill:#231f20;fill-opacity:1;fill-rule:nonzero;stroke:none"
           id="text2060"><tspan
             x="0"
             y="0"
             id="tspan2062">L</tspan></text>
<text
           transform="matrix(0,1,1,0,712.3344,231.87367)"
           style="font-variant:normal;font-weight:normal;font-stretch:normal;font-size:9.375px;font-family:'Trade Gothic';-inkscape-font-specification:TradeGothic;writing-mode:lr-tb;fill:#231f20;fill-opacity:1;fill-rule:nonzero;stroke:none"
           id="text2064"><tspan
             x="0 4.6875"
             y="0"
             sodipodi:role="line"
             id="tspan2066">e</tspan></text>
<text
           transform="matrix(0,1,1,0,712.3344,239.42055)"
           style="font-style:italic;font-variant:normal;font-weight:normal;font-stretch:normal;font-size:9.375px;font-family:Times;-inkscape-font-specification:Times-Italic;writing-mode:lr-tb;fill:#231f20;fill-opacity:1;fill-rule:nonzero;stroke:none"
           id="text2068"><tspan
             x="0"
             y="0"
             id="tspan2070">C</tspan></text>
<text
           transform="matrix(0,1,1,0,714.8344,245.6735)"
           style="font-style:italic;font-variant:normal;font-weight:normal;font-stretch:normal;font-size:6.875px;font-family:Times;-inkscape-font-specification:Times-Italic;writing-mode:lr-tb;fill:#231f20;fill-opacity:1;fill-rule:nonzero;stroke:none"
           id="text2072"><tspan
             x="0"
             y="0"
             id="tspan2074">D</tspan></text>
</g></g><text
       y="-109.93153"
       x="570.24164"
       transform="scale(1.0148915,-0.98532701)"
       style="font-variant:normal;font-weight:bold;font-stretch:normal;font-size:10.7832222px;font-family:'Helvetica 55 Roman';-inkscape-font-specification:HelveticaNeue-Bold;writing-mode:lr-tb;fill:#231f20;fill-opacity:1;fill-rule:nonzero;stroke:none"
       id="text2084"><tspan
         x="570.24164 576.63611 579.41815 586.00671 589.00446 592.73547 598.73096 601.72864 607.72412"
         y="-109.93153"
         sodipodi:role="line"
         id="tspan2086">Fig. 9.29</tspan></text>
<text
       y="-109.93153"
       x="617.45062"
       transform="scale(1.0148915,-0.98532701)"
       style="font-variant:normal;font-weight:normal;font-stretch:normal;font-size:10.7832222px;font-family:'Helvetica 55 Roman';-inkscape-font-specification:HelveticaNeue-Roman;writing-mode:lr-tb;fill:#231f20;fill-opacity:1;fill-rule:nonzero;stroke:none"
       id="text2088"><tspan
         x="617.45062 624.43811 628.02893 631.61975 637.41034 642.80194 646.19867 652.38824 656.11926 661.90985 665.64081 671.03241 677.02789 682.41949 685.81622 691.60681 697.60229 700.99902 706.78961 712.5802 718.37079 724.56036 728.29132 734.08197 743.28003 747.01105 753.00647 762.20459 765.93555 771.7262 774.12006 776.51392 778.90778 784.90326 791.29773 794.88855 801.07806 804.80908 810.59967 819.79779"
         y="-109.93153"
         sodipodi:role="line"
         id="tspan2090">Arrasto e sustentação em um cilindro em</tspan></text>
<text
       y="-96.273735"
       x="575.77136"
       transform="scale(1.0051444,-0.99488192)"
       style="font-variant:normal;font-weight:normal;font-stretch:normal;font-size:10.67965889px;font-family:'Helvetica 55 Roman';-inkscape-font-specification:HelveticaNeue-Roman;writing-mode:lr-tb;fill:#231f20;fill-opacity:1;fill-rule:nonzero;stroke:none"
       id="text2092"><tspan
         x="575.77136 579.3277 585.45782 588.8219 594.55688 600.29187 606.02686 612.15698 615.71326 621.44824 627.57837 636.68811 642.81824 646.37457 652.3125 661.42224 667.15723 670.7135 673.87469 679.81256 685.75049 691.48547 697.22046 703.35059 706.90686 713.23993 718.97491 722.53125 727.87103 733.60602 735.97693 742.10706 747.84204 750.21289 756.54596 762.28094 768.61395 774.34894 777.90527 781.46161 787.19653 789.56744 795.30243 798.6665 801.03741 806.3772 812.11218 815.66852 822.00159 827.73657"
         y="-96.273735"
         sodipodi:role="line"
         id="tspan2094">rotação como uma função da velocidade relativa de</tspan></text>
<text
       y="-83.243607"
       x="578.7334"
       style="font-variant:normal;font-weight:normal;font-stretch:normal;font-size:10.625px;font-family:'Helvetica 55 Roman';-inkscape-font-specification:HelveticaNeue-Roman;writing-mode:lr-tb;fill:#231f20;fill-opacity:1;fill-rule:nonzero;stroke:none"
       id="text2096"
       transform="scale(1,-1)"><tspan
         x="578.7334 582.27148 588.37024 591.7171 597.42273 603.12836 608.83398 614.93274 617.88654 620.84027 623.98523 630.08398 633.62213 639.32776 645.03339 647.98712 657.24152 662.94714 669.0459 674.95337 680.8609 686.1734 689.12714 692.08087 694.83276 702.31274 708.01837 714.31903 720.41772 725.73022 728.68402 734.98462 740.69025 743.64398 746.39587 752.30341 758.21088 760.96277 763.9165"
         y="-83.243607"
         sodipodi:role="line"
         id="tspan2098">rotação; força Magnus. (Dados de [35].)</tspan></text>
</g></svg>