<?xml version="1.0" encoding="UTF-8" standalone="no"?>
<!-- Created with Inkscape (http://www.inkscape.org/) -->

<svg
   xmlns:dc="http://purl.org/dc/elements/1.1/"
   xmlns:cc="http://creativecommons.org/ns#"
   xmlns:rdf="http://www.w3.org/1999/02/22-rdf-syntax-ns#"
   xmlns:svg="http://www.w3.org/2000/svg"
   xmlns="http://www.w3.org/2000/svg"
   xmlns:sodipodi="http://sodipodi.sourceforge.net/DTD/sodipodi-0.dtd"
   xmlns:inkscape="http://www.inkscape.org/namespaces/inkscape"
   id="svg2"
   version="1.1"
   inkscape:version="0.91 r13725"
   xml:space="preserve"
   width="321.73856"
   height="166.01562"
   viewBox="0 0 321.73856 166.01562"
   sodipodi:docname="fig922.svg"><metadata
     id="metadata8"><rdf:RDF><cc:Work
         rdf:about=""><dc:format>image/svg+xml</dc:format><dc:type
           rdf:resource="http://purl.org/dc/dcmitype/StillImage" /><dc:title></dc:title></cc:Work></rdf:RDF></metadata><defs
     id="defs6"><clipPath
       clipPathUnits="userSpaceOnUse"
       id="clipPath18"><path
         d="m 0,0 1058.173,0 0,793.701 L 0,793.701 0,0 Z"
         id="path20"
         inkscape:connector-curvature="0" /></clipPath><clipPath
       clipPathUnits="userSpaceOnUse"
       id="clipPath30"><path
         d="m 980.208,708.66 -71.469,0 0,-17.532 71.469,0 0,17.532 z"
         id="path32"
         inkscape:connector-curvature="0" /></clipPath><clipPath
       clipPathUnits="userSpaceOnUse"
       id="clipPath42"><path
         d="m 980.208,787.797 -71.469,0 0,-79.137 71.469,0 0,79.137 z"
         id="path44"
         inkscape:connector-curvature="0" /></clipPath><clipPath
       clipPathUnits="userSpaceOnUse"
       id="clipPath150"><path
         d="m 73.701,349.002 347.418,0 0,304.848 -347.418,0 0,-304.848 z"
         id="path152"
         inkscape:connector-curvature="0" /></clipPath><clipPath
       clipPathUnits="userSpaceOnUse"
       id="clipPath302"><path
         d="m 73.701,349.002 347.418,0 0,304.848 -347.418,0 0,-304.848 z"
         id="path304"
         inkscape:connector-curvature="0" /></clipPath><clipPath
       clipPathUnits="userSpaceOnUse"
       id="clipPath494"><path
         d="m 76.014,68.805 295.254,0 0,171.567 -295.254,0 0,-171.567 z"
         id="path496"
         inkscape:connector-curvature="0" /></clipPath><clipPath
       clipPathUnits="userSpaceOnUse"
       id="clipPath676"><path
         d="m 0,0 1058.173,0 0,793.701 L 0,793.701 0,0 Z"
         id="path678"
         inkscape:connector-curvature="0" /></clipPath><clipPath
       clipPathUnits="userSpaceOnUse"
       id="clipPath706"><path
         d="m 520.668,332.748 423.792,0 0,201.69 -423.792,0 0,-201.69 z"
         id="path708"
         inkscape:connector-curvature="0" /></clipPath><clipPath
       clipPathUnits="userSpaceOnUse"
       id="clipPath894"><path
         d="m 600.048,60.912 267.498,0 0,135 -267.498,0 0,-135 z"
         id="path896"
         inkscape:connector-curvature="0" /></clipPath><clipPath
       clipPathUnits="userSpaceOnUse"
       id="clipPath1012"><path
         d="m 0,0 1058.173,0 0,793.701 L 0,793.701 0,0 Z"
         id="path1014"
         inkscape:connector-curvature="0" /></clipPath><clipPath
       clipPathUnits="userSpaceOnUse"
       id="clipPath894-2"><path
         d="m 600.048,60.912 267.498,0 0,135 -267.498,0 0,-135 z"
         id="path896-3"
         inkscape:connector-curvature="0" /></clipPath></defs><sodipodi:namedview
     pagecolor="#ffffff"
     bordercolor="#666666"
     borderopacity="1"
     objecttolerance="10"
     gridtolerance="10"
     guidetolerance="10"
     inkscape:pageopacity="0"
     inkscape:pageshadow="2"
     inkscape:window-width="1920"
     inkscape:window-height="1008"
     id="namedview4"
     showgrid="false"
     inkscape:zoom="1.6112175"
     inkscape:cx="209.52993"
     inkscape:cy="31.363905"
     inkscape:window-x="-5"
     inkscape:window-y="-5"
     inkscape:window-maximized="1"
     inkscape:current-layer="g10" /><g
     id="g10"
     inkscape:groupmode="layer"
     inkscape:label="Capítulo 9"
     transform="matrix(1.25,0,0,-1.25,-468.46846,593.18104)"><g
       id="g886"
       transform="translate(375.08727,474.54483)"><path
         d="m 0,0 0,-132.5 207.5,0"
         style="fill:none;stroke:#231f20;stroke-width:0.625;stroke-linecap:butt;stroke-linejoin:miter;stroke-miterlimit:4;stroke-dasharray:none;stroke-opacity:1"
         id="path888"
         inkscape:connector-curvature="0" /></g><g
       transform="translate(-226.41673,279.88033)"
       id="g890"><g
         id="g892"
         clip-path="url(#clipPath894-2)"><g
           id="g898"
           transform="translate(715.5665,181.3625)"><path
             d="m 0,0 c 0,0 3.55,-1.281 5,-1.281 -1.45,0 -5,-1.283 -5,-1.283 L 0.833,-1.329 0,0 Z"
             style="fill:#231f20;fill-opacity:1;fill-rule:nonzero;stroke:none"
             id="path900"
             inkscape:connector-curvature="0" /></g><g
           id="g902"
           transform="translate(717.3365,180.0809)"><path
             d="M 0,0 -115.833,0"
             style="fill:none;stroke:#231f20;stroke-width:0.625;stroke-linecap:butt;stroke-linejoin:miter;stroke-miterlimit:4;stroke-dasharray:none;stroke-opacity:1"
             id="path904"
             inkscape:connector-curvature="0" /></g><g
           id="g906"
           transform="translate(715.5665,163.03)"><path
             d="m 0,0 c 0,0 3.55,-1.281 5,-1.281 -1.45,0 -5,-1.283 -5,-1.283 L 0.833,-1.33 0,0 Z"
             style="fill:#231f20;fill-opacity:1;fill-rule:nonzero;stroke:none"
             id="path908"
             inkscape:connector-curvature="0" /></g><g
           id="g910"
           transform="translate(665.6691,163.03)"><path
             d="m 0,0 c 0,0 3.55,-1.281 5,-1.281 -1.45,0 -5,-1.283 -5,-1.283 L 0.834,-1.33 0,0 Z"
             style="fill:#231f20;fill-opacity:1;fill-rule:nonzero;stroke:none"
             id="path912"
             inkscape:connector-curvature="0" /></g><g
           id="g914"
           transform="translate(717.3365,161.7483)"><path
             d="M 0,0 -115.833,0"
             style="fill:none;stroke:#231f20;stroke-width:0.625;stroke-linecap:butt;stroke-linejoin:miter;stroke-miterlimit:4;stroke-dasharray:5, 2.5, 5, 2.5;stroke-dashoffset:0;stroke-opacity:1"
             id="path916"
             inkscape:connector-curvature="0" /></g><g
           id="g918"
           transform="translate(720.5665,147.1645)"><path
             d="M 0,0 0,45"
             style="fill:none;stroke:#231f20;stroke-width:0.625;stroke-linecap:butt;stroke-linejoin:miter;stroke-miterlimit:4;stroke-dasharray:5, 2.5, 5, 2.5;stroke-dashoffset:0;stroke-opacity:1"
             id="path920"
             inkscape:connector-curvature="0" /></g><g
           id="g922"
           transform="translate(670.6691,147.1645)"><path
             d="M 0,0 0,27.5"
             style="fill:none;stroke:#231f20;stroke-width:0.625;stroke-linecap:butt;stroke-linejoin:miter;stroke-miterlimit:4;stroke-dasharray:5, 2.5, 5, 2.5;stroke-dashoffset:0;stroke-opacity:1"
             id="path924"
             inkscape:connector-curvature="0" /></g><g
           id="g926"
           transform="translate(715.5665,106.9875)"><path
             d="m 0,0 c 0,0 3.55,-1.281 5,-1.281 -1.45,0 -5,-1.283 -5,-1.283 L 0.833,-1.329 0,0 Z"
             style="fill:#231f20;fill-opacity:1;fill-rule:nonzero;stroke:none"
             id="path928"
             inkscape:connector-curvature="0" /></g><g
           id="g930"
           transform="translate(715.5665,88.655)"><path
             d="m 0,0 c 0,0 3.55,-1.281 5,-1.281 -1.45,0 -5,-1.283 -5,-1.283 L 0.833,-1.33 0,0 Z"
             style="fill:#231f20;fill-opacity:1;fill-rule:nonzero;stroke:none"
             id="path932"
             inkscape:connector-curvature="0" /></g><g
           id="g934"
           transform="translate(665.6691,88.655)"><path
             d="m 0,0 c 0,0 3.55,-1.281 5,-1.281 -1.45,0 -5,-1.283 -5,-1.283 L 0.834,-1.33 0,0 Z"
             style="fill:#231f20;fill-opacity:1;fill-rule:nonzero;stroke:none"
             id="path936"
             inkscape:connector-curvature="0" /></g><g
           id="g938"
           transform="translate(717.3365,87.3733)"><path
             d="M 0,0 -115.833,0"
             style="fill:none;stroke:#231f20;stroke-width:0.625;stroke-linecap:butt;stroke-linejoin:miter;stroke-miterlimit:4;stroke-dasharray:5, 2.5, 5, 2.5;stroke-dashoffset:0;stroke-opacity:1"
             id="path940"
             inkscape:connector-curvature="0" /></g><g
           id="g942"
           transform="translate(720.5665,72.7902)"><path
             d="M 0,0 0,45"
             style="fill:none;stroke:#231f20;stroke-width:0.625;stroke-linecap:butt;stroke-linejoin:miter;stroke-miterlimit:4;stroke-dasharray:5, 2.5, 5, 2.5;stroke-dashoffset:0;stroke-opacity:1"
             id="path944"
             inkscape:connector-curvature="0" /></g><g
           id="g946"
           transform="translate(787.754,106.9875)"><path
             d="m 0,0 c 0,0 3.55,-1.281 5,-1.281 -1.45,0 -5,-1.283 -5,-1.283 L 0.833,-1.329 0,0 Z"
             style="fill:#231f20;fill-opacity:1;fill-rule:nonzero;stroke:none"
             id="path948"
             inkscape:connector-curvature="0" /></g><g
           id="g950"
           transform="translate(789.524,105.7059)"><path
             d="M 0,0 -188.02,0"
             style="fill:none;stroke:#231f20;stroke-width:0.625;stroke-linecap:butt;stroke-linejoin:miter;stroke-miterlimit:4;stroke-dasharray:5, 2.5, 5, 2.5;stroke-dashoffset:0;stroke-opacity:1"
             id="path952"
             inkscape:connector-curvature="0" /></g><g
           id="g954"
           transform="translate(787.754,126.5725)"><path
             d="m 0,0 c 0,0 3.55,-1.282 5,-1.282 -1.45,0 -5,-1.283 -5,-1.283 L 0.833,-1.33 0,0 Z"
             style="fill:#231f20;fill-opacity:1;fill-rule:nonzero;stroke:none"
             id="path956"
             inkscape:connector-curvature="0" /></g><g
           id="g958"
           transform="translate(789.524,125.2895)"><path
             d="M 0,0 -188.02,0"
             style="fill:none;stroke:#231f20;stroke-width:0.625;stroke-linecap:butt;stroke-linejoin:miter;stroke-miterlimit:4;stroke-dasharray:none;stroke-opacity:1"
             id="path960"
             inkscape:connector-curvature="0" /></g><g
           id="g962"
           transform="translate(792.754,99.0395)"><path
             d="M 0,0 0,41.25"
             style="fill:none;stroke:#231f20;stroke-width:0.625;stroke-linecap:butt;stroke-linejoin:miter;stroke-miterlimit:4;stroke-dasharray:5, 2.5, 5, 2.5;stroke-dashoffset:0;stroke-opacity:1"
             id="path964"
             inkscape:connector-curvature="0" /></g><g
           id="g966"
           transform="translate(670.6691,72.7902)"><path
             d="M 0,0 0,27.5"
             style="fill:none;stroke:#231f20;stroke-width:0.625;stroke-linecap:butt;stroke-linejoin:miter;stroke-miterlimit:4;stroke-dasharray:5, 2.5, 5, 2.5;stroke-dashoffset:0;stroke-opacity:1"
             id="path968"
             inkscape:connector-curvature="0" /></g><g
           id="g970"
           transform="translate(727.4415,187.8934)"><path
             d="m 0,0 c 3.333,0 6.25,-3.333 6.25,-6.25 l 0,-9.166 c 0,-1.875 2.5,-2.5 2.5,-2.5 0,0 -2.5,-0.417 -2.5,-2.5 l 0,-8.125 c 0,-5.834 -4.48,-6.25 -6.25,-6.25"
             style="fill:none;stroke:#231f20;stroke-width:0.625;stroke-linecap:butt;stroke-linejoin:miter;stroke-miterlimit:4;stroke-dasharray:none;stroke-opacity:1"
             id="path972"
             inkscape:connector-curvature="0" /></g><g
           id="g974"
           transform="translate(797.754,126.0184)"><path
             d="m 0,0 c 3.333,0 6.25,-3.332 6.25,-6.25 l 0,-12.916 c 0,-1.875 2.5,-2.5 2.5,-2.5 0,0 -2.5,-0.417 -2.5,-2.5 l 0,-10.625 c 0,-5.834 -4.48,-6.25 -6.25,-6.25"
             style="fill:none;stroke:#231f20;stroke-width:0.625;stroke-linecap:butt;stroke-linejoin:miter;stroke-miterlimit:4;stroke-dasharray:none;stroke-opacity:1"
             id="path976"
             inkscape:connector-curvature="0" /></g><text
           transform="matrix(1,0,0,-1,612.2249,183.727)"
           style="font-variant:normal;font-weight:normal;font-stretch:normal;font-size:9.375px;font-family:'Trade Gothic';-inkscape-font-specification:TradeGothic;writing-mode:lr-tb;fill:#231f20;fill-opacity:1;fill-rule:nonzero;stroke:none"
           id="text978"><tspan
             x="0 5.7281251 8.8500004 11.971875 16.659374 20.821875 23.94375 28.63125 31.490625 34.612499 39.299999 42.421875 47.109375 49.715626 52.575001 55.696877 60.909374 65.596878 68.456253 73.668747 78.356247 81.478127 84.599998 87.206253 89.8125"
             y="0"
             sodipodi:role="line"
             id="tspan980">Arrasto total (de perfil)</tspan><tspan
             x="-5.2312498 0.49687499 3.6187501 6.7406249 11.428125 15.590625 18.7125 23.4 26.259375 31.471874 36.159374 39.018749 44.231251 48.918751 52.040627 55.162498 57.768749 60.375 63.234375 66.356247 71.568748 76.256248 79.115623 82.237503 86.925003 90.046875 97.856247 102.54375 111.075 116.80312 119.925 123.04688 127.73438 131.89688 135.01875 139.70625 142.56563 145.17188 150.38437 155.59688 160.80937 164.97188 167.57812 172.79062"
             y="73.125"
             sodipodi:role="line"
             id="tspan982">Arrasto de perfil (de forma)Arrasto induzido</tspan><tspan
             x="72.234375 77.962502 81.084373 84.206253 88.893753 93.056252 96.178123 100.86562 103.725 106.84688 111.53438 114.65625 119.34375"
             y="55.003124"
             sodipodi:role="line"
             id="tspan984">Arrasto total</tspan><tspan
             x="62.915627 68.643753 71.765625 74.887497 79.574997 83.737503 86.859375 91.546875 94.40625 99.618752"
             y="19.021875"
             sodipodi:role="line"
             id="tspan986">Arrasto de</tspan><tspan
             x="68.25 73.462502 76.584373 81.271873 85.434372 89.596878 94.284378"
             y="30.9"
             sodipodi:role="line"
             id="tspan988">pressão</tspan><tspan
             x="-8.8781252 -3.1500001 -0.028124999 3.09375 7.78125 11.94375 15.065625 19.753124 22.612499 27.825001 32.512501 35.371876 40.059376 43.181252 46.303123 48.909374 52.03125"
             y="19.021875"
             sodipodi:role="line"
             id="tspan990">Arrasto de atrito</tspan><tspan
             x="2.559375 6.7218752 11.934375 17.146875 21.834375 24.956249 28.078125 30.684376 35.371876 37.978127 42.665627"
             y="30.9"
             sodipodi:role="line"
             id="tspan992">superficial</tspan><tspan
             x="63.571877 69.300003 72.421875 75.543747 80.231247 84.393753 87.515625 92.203125 95.0625 100.275"
             y="93.440628"
             sodipodi:role="line"
             id="tspan994">Arrasto de</tspan><tspan
             x="68.90625 74.118752 77.240623 81.928123 86.090622 90.253128 94.940628"
             y="105.31875"
             sodipodi:role="line"
             id="tspan996">pressão</tspan><tspan
             x="-9.46875 -3.7406249 -0.61874998 2.503125 7.1906252 11.353125 14.475 19.1625 22.021875 27.234375 31.921875 34.78125 39.46875 42.590626 45.712502 48.318748 51.440624"
             y="93.440628"
             sodipodi:role="line"
             id="tspan998">Arrasto de atrito</tspan><tspan
             x="1.96875 6.1312499 11.34375 16.55625 21.24375 24.365625 27.487499 30.09375 34.78125 37.387501 42.075001"
             y="105.31875"
             sodipodi:role="line"
             id="tspan1000">superficial</tspan><tspan
             x="127.07812 132.80624 137.49374 140.61563 145.82812 150.51562 154.67813 157.53751 161.7 166.3875 174.19687 177.05624 181.21875 186.43124 190.59375 193.71562 198.40312 203.61563 206.7375 211.425 216.1125 220.8"
             y="15.946875"
             sodipodi:role="line"
             id="tspan1002">Corpos sem sustentação</tspan><tspan
             x="197.39062 203.11874 207.80624 210.92813 216.14062 220.82812 224.99063 227.85001 232.53751 237.22501"
             y="75.637497"
             sodipodi:role="line"
             id="tspan1004">Corpos com</tspan><tspan
             x="197.39062 201.55313 206.76562 210.92813 214.05 218.7375 223.95 227.07187 231.75937 236.44687 241.13437"
             y="86.259377"
             sodipodi:role="line"
             id="tspan1006">sustentação</tspan></text>
</g></g></g></svg>