<?xml version="1.0" encoding="UTF-8" standalone="no"?>
<!-- Created with Inkscape (http://www.inkscape.org/) -->

<svg
   xmlns:dc="http://purl.org/dc/elements/1.1/"
   xmlns:cc="http://creativecommons.org/ns#"
   xmlns:rdf="http://www.w3.org/1999/02/22-rdf-syntax-ns#"
   xmlns:svg="http://www.w3.org/2000/svg"
   xmlns="http://www.w3.org/2000/svg"
   xmlns:sodipodi="http://sodipodi.sourceforge.net/DTD/sodipodi-0.dtd"
   xmlns:inkscape="http://www.inkscape.org/namespaces/inkscape"
   id="svg2"
   version="1.1"
   inkscape:version="0.91 r13725"
   xml:space="preserve"
   width="356.67169"
   height="207.57034"
   viewBox="0 0 356.67169 207.57034"
   sodipodi:docname="fig920.svg"><metadata
     id="metadata8"><rdf:RDF><cc:Work
         rdf:about=""><dc:format>image/svg+xml</dc:format><dc:type
           rdf:resource="http://purl.org/dc/dcmitype/StillImage" /><dc:title></dc:title></cc:Work></rdf:RDF></metadata><defs
     id="defs6"><clipPath
       clipPathUnits="userSpaceOnUse"
       id="clipPath18"><path
         d="m 0,0 1058.173,0 0,793.701 L 0,793.701 0,0 Z"
         id="path20"
         inkscape:connector-curvature="0" /></clipPath><clipPath
       clipPathUnits="userSpaceOnUse"
       id="clipPath30"><path
         d="m 980.208,708.66 -71.469,0 0,-17.532 71.469,0 0,17.532 z"
         id="path32"
         inkscape:connector-curvature="0" /></clipPath><clipPath
       clipPathUnits="userSpaceOnUse"
       id="clipPath42"><path
         d="m 980.208,787.797 -71.469,0 0,-79.137 71.469,0 0,79.137 z"
         id="path44"
         inkscape:connector-curvature="0" /></clipPath><clipPath
       clipPathUnits="userSpaceOnUse"
       id="clipPath150"><path
         d="m 73.701,349.002 347.418,0 0,304.848 -347.418,0 0,-304.848 z"
         id="path152"
         inkscape:connector-curvature="0" /></clipPath><clipPath
       clipPathUnits="userSpaceOnUse"
       id="clipPath302"><path
         d="m 73.701,349.002 347.418,0 0,304.848 -347.418,0 0,-304.848 z"
         id="path304"
         inkscape:connector-curvature="0" /></clipPath><clipPath
       clipPathUnits="userSpaceOnUse"
       id="clipPath494"><path
         d="m 76.014,68.805 295.254,0 0,171.567 -295.254,0 0,-171.567 z"
         id="path496"
         inkscape:connector-curvature="0" /></clipPath><clipPath
       clipPathUnits="userSpaceOnUse"
       id="clipPath676"><path
         d="m 0,0 1058.173,0 0,793.701 L 0,793.701 0,0 Z"
         id="path678"
         inkscape:connector-curvature="0" /></clipPath><clipPath
       clipPathUnits="userSpaceOnUse"
       id="clipPath706"><path
         d="m 520.668,332.748 423.792,0 0,201.69 -423.792,0 0,-201.69 z"
         id="path708"
         inkscape:connector-curvature="0" /></clipPath><clipPath
       clipPathUnits="userSpaceOnUse"
       id="clipPath894"><path
         d="m 600.048,60.912 267.498,0 0,135 -267.498,0 0,-135 z"
         id="path896"
         inkscape:connector-curvature="0" /></clipPath><clipPath
       clipPathUnits="userSpaceOnUse"
       id="clipPath1012"><path
         d="m 0,0 1058.173,0 0,793.701 L 0,793.701 0,0 Z"
         id="path1014"
         inkscape:connector-curvature="0" /></clipPath><clipPath
       clipPathUnits="userSpaceOnUse"
       id="clipPath494-6"><path
         d="m 76.014,68.805 295.254,0 0,171.567 -295.254,0 0,-171.567 z"
         id="path496-3"
         inkscape:connector-curvature="0" /></clipPath></defs><sodipodi:namedview
     pagecolor="#ffffff"
     bordercolor="#666666"
     borderopacity="1"
     objecttolerance="10"
     gridtolerance="10"
     guidetolerance="10"
     inkscape:pageopacity="0"
     inkscape:pageshadow="2"
     inkscape:window-width="1920"
     inkscape:window-height="1008"
     id="namedview4"
     showgrid="false"
     inkscape:zoom="1.6112175"
     inkscape:cx="257.55212"
     inkscape:cy="112.88551"
     inkscape:window-x="-5"
     inkscape:window-y="-5"
     inkscape:window-maximized="1"
     inkscape:current-layer="g10" /><g
     id="g10"
     inkscape:groupmode="layer"
     inkscape:label="Capítulo 9"
     transform="matrix(1.25,0,0,-1.25,-499.41249,692.16013)"><g
       transform="translate(319.39128,317.05067)"
       id="g490"><g
         id="g492"
         clip-path="url(#clipPath494-6)"><g
           id="g498"
           transform="translate(88.8399,161.3056)"><path
             d="m 0,0 c -1.668,-3.75 8.939,-11.463 19.36,-15.202 42.094,-15.107 61.889,-15.216 61.889,-15.216 l 0.001,0 c 0,0 -15,12.918 -56.668,29.168 C 14.269,2.771 1.666,3.75 0,0"
             style="fill:#deddde;fill-opacity:1;fill-rule:nonzero;stroke:none"
             id="path500"
             inkscape:connector-curvature="0" /></g><g
           id="g502"
           transform="translate(88.8399,161.3056)"><path
             d="m 0,0 c -1.667,-3.75 8.939,-11.462 19.36,-15.202 42.094,-15.107 61.889,-15.215 61.889,-15.215 l 0.001,0 c 0,0 -15,12.917 -56.667,29.167 C 14.269,2.771 1.666,3.75 0,0 Z"
             style="fill:none;stroke:#231f20;stroke-width:0.625;stroke-linecap:butt;stroke-linejoin:miter;stroke-miterlimit:4;stroke-dasharray:none;stroke-opacity:1"
             id="path504"
             inkscape:connector-curvature="0" /></g><g
           id="g506"
           transform="translate(91.1311,163.1806)"><path
             d="m 0,0 127.188,71.25 c 0.625,1.563 4.062,3.438 6.25,0 2.187,-3.437 2.5,-5.312 7.187,-7.187 4.688,-1.875 8.125,-3.438 10,-5.938 1.875,-2.5 3.125,-5.312 6.25,-6.562 3.125,-1.25 7.5,2.187 10.938,0.937 3.437,-1.25 2.5,-5 4.687,-8.125 2.188,-3.125 4.688,-6.25 7.813,-7.187 3.125,-0.938 3.75,-2.188 3.75,-2.188 L 83.125,-30"
             style="fill:none;stroke:#231f20;stroke-width:0.625;stroke-linecap:butt;stroke-linejoin:miter;stroke-miterlimit:4;stroke-dasharray:none;stroke-opacity:1"
             id="path508"
             inkscape:connector-curvature="0" /></g><g
           id="g510"
           transform="translate(176.7561,129.6382)"><path
             d="M 0,0 115.416,-44.167"
             style="fill:none;stroke:#231f20;stroke-width:0.625;stroke-linecap:butt;stroke-linejoin:miter;stroke-miterlimit:4;stroke-dasharray:5, 2.5, 5, 2.5;stroke-dashoffset:0;stroke-opacity:1"
             id="path512"
             inkscape:connector-curvature="0" /></g><g
           id="g514"
           transform="translate(278.5439,101.3886)"><path
             d="m 0,0 c -0.556,3.539 -2.356,6.423 -5.08,7.551 -4.605,1.904 -10.113,-1.918 -12.305,-8.542 -2.193,-6.624 -0.237,-13.538 4.368,-15.444 2.843,-1.178 6.034,-0.166 8.576,2.341"
             style="fill:none;stroke:#1a64b7;stroke-width:1.25;stroke-linecap:butt;stroke-linejoin:miter;stroke-miterlimit:4;stroke-dasharray:none;stroke-opacity:1"
             id="path516"
             inkscape:connector-curvature="0" /></g><g
           id="g518"
           transform="translate(280.6557,103.8276)"><path
             d="m 0,0 c 0,0 -1.531,-5.076 -1.189,-6.974 -0.342,1.898 -3.545,6.121 -3.545,6.121 L -2.259,-1.534 0,0 Z"
             style="fill:#1a64b7;fill-opacity:1;fill-rule:nonzero;stroke:none"
             id="path520"
             inkscape:connector-curvature="0" /></g><g
           id="g522"
           transform="translate(257.6479,107.314)"><path
             d="m 0,0 c -0.481,3.045 -2.026,5.525 -4.37,6.494 -3.96,1.641 -8.699,-1.65 -10.584,-7.346 -1.887,-5.698 -0.205,-11.645 3.755,-13.284 2.449,-1.013 5.193,-0.144 7.378,2.012"
             style="fill:none;stroke:#1a64b7;stroke-width:1.25;stroke-linecap:butt;stroke-linejoin:miter;stroke-miterlimit:4;stroke-dasharray:none;stroke-opacity:1"
             id="path524"
             inkscape:connector-curvature="0" /></g><g
           id="g526"
           transform="translate(259.4619,109.4111)"><path
             d="m 0,0 c 0,0 -1.314,-4.364 -1.02,-5.997 -0.294,1.633 -3.05,5.265 -3.05,5.265 L -1.941,-1.319 0,0 Z"
             style="fill:#1a64b7;fill-opacity:1;fill-rule:nonzero;stroke:none"
             id="path528"
             inkscape:connector-curvature="0" /></g><g
           id="g530"
           transform="translate(236.1342,113.8594)"><path
             d="m 0,0 c -0.405,2.566 -1.709,4.659 -3.684,5.476 -3.34,1.381 -7.334,-1.391 -8.923,-6.193 -1.589,-4.803 -0.172,-9.818 3.166,-11.199 2.066,-0.855 4.377,-0.123 6.221,1.696"
             style="fill:none;stroke:#1a64b7;stroke-width:1.25;stroke-linecap:butt;stroke-linejoin:miter;stroke-miterlimit:4;stroke-dasharray:none;stroke-opacity:1"
             id="path532"
             inkscape:connector-curvature="0" /></g><g
           id="g534"
           transform="translate(237.665,115.6294)"><path
             d="m 0,0 c 0,0 -1.109,-3.679 -0.861,-5.057 -0.248,1.378 -2.571,4.44 -2.571,4.44 L -1.639,-1.113 0,0 Z"
             style="fill:#1a64b7;fill-opacity:1;fill-rule:nonzero;stroke:none"
             id="path536"
             inkscape:connector-curvature="0" /></g><g
           id="g538"
           transform="translate(216.5469,122.5874)"><path
             d="m 0,0 c 0,0 -0.974,-3.716 -0.676,-5.083 -0.298,1.367 -2.733,4.341 -2.733,4.341 L -1.596,-1.17 0,0 Z"
             style="fill:#1a64b7;fill-opacity:1;fill-rule:nonzero;stroke:none"
             id="path540"
             inkscape:connector-curvature="0" /></g><g
           id="g542"
           transform="translate(196.4107,128.6299)"><path
             d="m 0,0 c 0,0 -0.481,-3.425 -0.071,-4.616 -0.41,1.191 -2.895,3.596 -2.895,3.596 L -1.304,-1.214 0,0 Z"
             style="fill:#1a64b7;fill-opacity:1;fill-rule:nonzero;stroke:none"
             id="path544"
             inkscape:connector-curvature="0" /></g><g
           id="g546"
           transform="translate(182.2371,131.9185)"><path
             d="m 0,0 c 0,0 -0.434,-3.084 -0.065,-4.155 -0.369,1.071 -2.605,3.236 -2.605,3.236 L -1.172,-1.094 0,0 Z"
             style="fill:#1a64b7;fill-opacity:1;fill-rule:nonzero;stroke:none"
             id="path548"
             inkscape:connector-curvature="0" /></g><g
           id="g550"
           transform="translate(215.3481,120.0605)"><path
             d="m 0,0 c -0.313,1.997 -1.329,3.622 -2.866,4.26 -2.595,1.075 -5.703,-1.081 -6.941,-4.819 -1.235,-3.736 -0.132,-7.636 2.466,-8.711 1.603,-0.664 3.403,-0.094 4.836,1.321"
             style="fill:none;stroke:#1a64b7;stroke-width:1.25;stroke-linecap:butt;stroke-linejoin:miter;stroke-miterlimit:4;stroke-dasharray:none;stroke-opacity:1"
             id="path552"
             inkscape:connector-curvature="0" /></g><g
           id="g554"
           transform="translate(195.732,125.8028)"><path
             d="m 0,0 c -0.219,1.391 -0.925,2.525 -1.996,2.967 -1.809,0.749 -3.973,-0.753 -4.835,-3.356 -0.86,-2.602 -0.093,-5.318 1.716,-6.068 1.119,-0.462 2.374,-0.067 3.37,0.92"
             style="fill:none;stroke:#1a64b7;stroke-width:1.25;stroke-linecap:butt;stroke-linejoin:miter;stroke-miterlimit:4;stroke-dasharray:none;stroke-opacity:1"
             id="path556"
             inkscape:connector-curvature="0" /></g><g
           id="g558"
           transform="translate(181.2105,129.9568)"><path
             d="m 0,0 c -0.156,0.999 -0.664,1.813 -1.432,2.13 -1.3,0.537 -2.853,-0.541 -3.472,-2.41 -0.619,-1.867 -0.067,-3.818 1.231,-4.355 0.804,-0.332 1.704,-0.047 2.42,0.659"
             style="fill:none;stroke:#1a64b7;stroke-width:1.25;stroke-linecap:butt;stroke-linejoin:miter;stroke-miterlimit:4;stroke-dasharray:none;stroke-opacity:1"
             id="path560"
             inkscape:connector-curvature="0" /></g><g
           id="g562"
           transform="translate(237.9091,154.2085)"><path
             d="M 0,0 C 0,0 -2.402,-4.724 -2.402,-6.652 -2.402,-4.724 -4.807,0 -4.807,0 L -2.492,-1.109 0,0 Z"
             style="fill:#1a64b7;fill-opacity:1;fill-rule:nonzero;stroke:none"
             id="path564"
             inkscape:connector-curvature="0" /></g><g
           id="g566"
           transform="translate(235.5067,150.7833)"><path
             d="M 0,0 0,12.292"
             style="fill:none;stroke:#1a64b7;stroke-width:1.25;stroke-linecap:butt;stroke-linejoin:miter;stroke-miterlimit:4;stroke-dasharray:none;stroke-opacity:1"
             id="path568"
             inkscape:connector-curvature="0" /></g><g
           id="g570"
           transform="translate(258.5341,167.3335)"><path
             d="M 0,0 C 0,0 -2.402,-4.724 -2.402,-6.652 -2.402,-4.724 -4.807,0 -4.807,0 L -2.492,-1.109 0,0 Z"
             style="fill:#1a64b7;fill-opacity:1;fill-rule:nonzero;stroke:none"
             id="path572"
             inkscape:connector-curvature="0" /></g><g
           id="g574"
           transform="translate(256.1317,163.9083)"><path
             d="M 0,0 0,12.292"
             style="fill:none;stroke:#1a64b7;stroke-width:1.25;stroke-linecap:butt;stroke-linejoin:miter;stroke-miterlimit:4;stroke-dasharray:none;stroke-opacity:1"
             id="path576"
             inkscape:connector-curvature="0" /></g><g
           id="g578"
           transform="translate(217.2841,141.0835)"><path
             d="M 0,0 C 0,0 -2.402,-4.724 -2.402,-6.652 -2.402,-4.724 -4.807,0 -4.807,0 L -2.492,-1.109 0,0 Z"
             style="fill:#1a64b7;fill-opacity:1;fill-rule:nonzero;stroke:none"
             id="path580"
             inkscape:connector-curvature="0" /></g><g
           id="g582"
           transform="translate(214.8817,137.6583)"><path
             d="M 0,0 0,12.292"
             style="fill:none;stroke:#1a64b7;stroke-width:1.25;stroke-linecap:butt;stroke-linejoin:miter;stroke-miterlimit:4;stroke-dasharray:none;stroke-opacity:1"
             id="path584"
             inkscape:connector-curvature="0" /></g><g
           id="g586"
           transform="translate(276.0341,138.5835)"><path
             d="M 0,0 C 0,0 -2.402,-4.724 -2.402,-6.652 -2.402,-4.724 -4.807,0 -4.807,0 L -2.492,-1.109 0,0 Z"
             style="fill:#1a64b7;fill-opacity:1;fill-rule:nonzero;stroke:none"
             id="path588"
             inkscape:connector-curvature="0" /></g><g
           id="g590"
           transform="translate(273.6317,135.1583)"><path
             d="M 0,0 0,12.292"
             style="fill:none;stroke:#1a64b7;stroke-width:1.25;stroke-linecap:butt;stroke-linejoin:miter;stroke-miterlimit:4;stroke-dasharray:none;stroke-opacity:1"
             id="path592"
             inkscape:connector-curvature="0" /></g><g
           id="g594"
           transform="translate(296.6591,151.7085)"><path
             d="M 0,0 C 0,0 -2.402,-4.724 -2.402,-6.652 -2.402,-4.724 -4.807,0 -4.807,0 L -2.492,-1.109 0,0 Z"
             style="fill:#1a64b7;fill-opacity:1;fill-rule:nonzero;stroke:none"
             id="path596"
             inkscape:connector-curvature="0" /></g><g
           id="g598"
           transform="translate(294.2567,148.2833)"><path
             d="M 0,0 0,12.292"
             style="fill:none;stroke:#1a64b7;stroke-width:1.25;stroke-linecap:butt;stroke-linejoin:miter;stroke-miterlimit:4;stroke-dasharray:none;stroke-opacity:1"
             id="path600"
             inkscape:connector-curvature="0" /></g><g
           id="g602"
           transform="translate(255.4091,125.4585)"><path
             d="M 0,0 C 0,0 -2.402,-4.724 -2.402,-6.652 -2.402,-4.724 -4.807,0 -4.807,0 L -2.492,-1.109 0,0 Z"
             style="fill:#1a64b7;fill-opacity:1;fill-rule:nonzero;stroke:none"
             id="path604"
             inkscape:connector-curvature="0" /></g><g
           id="g606"
           transform="translate(253.0067,122.0333)"><path
             d="M 0,0 0,12.292"
             style="fill:none;stroke:#1a64b7;stroke-width:1.25;stroke-linecap:butt;stroke-linejoin:miter;stroke-miterlimit:4;stroke-dasharray:none;stroke-opacity:1"
             id="path608"
             inkscape:connector-curvature="0" /></g><g
           id="g610"
           transform="translate(279.1591,180.4585)"><path
             d="M 0,0 C 0,0 -2.402,-4.724 -2.402,-6.652 -2.402,-4.724 -4.807,0 -4.807,0 L -2.492,-1.109 0,0 Z"
             style="fill:#1a64b7;fill-opacity:1;fill-rule:nonzero;stroke:none"
             id="path612"
             inkscape:connector-curvature="0" /></g><g
           id="g614"
           transform="translate(276.7567,177.0333)"><path
             d="M 0,0 0,12.292"
             style="fill:none;stroke:#1a64b7;stroke-width:1.25;stroke-linecap:butt;stroke-linejoin:miter;stroke-miterlimit:4;stroke-dasharray:none;stroke-opacity:1"
             id="path616"
             inkscape:connector-curvature="0" /></g><g
           id="g618"
           transform="translate(147.5679,201.8476)"><path
             d="M 0,0 C 0,0 -3.943,3.543 -5.806,4.04 -3.943,3.543 1.241,4.646 1.241,4.646 L -0.427,2.696 0,0 Z"
             style="fill:#1a64b7;fill-opacity:1;fill-rule:nonzero;stroke:none"
             id="path620"
             inkscape:connector-curvature="0" /></g><g
           id="g622"
           transform="translate(144.8811,205.0556)"><path
             d="M 0,0 45.544,-12.173"
             style="fill:none;stroke:#1a64b7;stroke-width:1.25;stroke-linecap:butt;stroke-linejoin:miter;stroke-miterlimit:4;stroke-dasharray:none;stroke-opacity:1"
             id="path624"
             inkscape:connector-curvature="0" /></g><text
           transform="matrix(1,0,0,-1,124.6686,204.4306)"
           style="font-variant:normal;font-weight:normal;font-stretch:normal;font-size:9.375px;font-family:'Trade Gothic';-inkscape-font-specification:TradeGothic;writing-mode:lr-tb;fill:#231f20;fill-opacity:1;fill-rule:nonzero;stroke:none"
           id="text626"><tspan
             x="0 5.2125001 9.8999996"
             y="0"
             sodipodi:role="line"
             id="tspan628">Voo</tspan><tspan
             x="122.09062 127.81875 131.98125 136.66875 139.52812 142.64999 145.25626 150.46875 153.075 156.19687"
             y="-18.75"
             sodipodi:role="line"
             id="tspan630">Asa finita</tspan><tspan
             x="174.1125 179.325 184.0125 186.61874 191.30624 195.99374 198.60001 203.8125 208.5 213.71249 218.39999"
             y="22.5"
             sodipodi:role="line"
             id="tspan632">Velocidades</tspan><tspan
             x="156.41251 159.01875 164.23125 169.44376 174.65625 178.81876 181.425 186.6375 191.325 195.4875 198.34688 203.55937 208.24687 211.36874 216.05624 218.91562 224.12813 228.81563 231.42188 235.58438"
             y="33.121876"
             sodipodi:role="line"
             id="tspan634">induzidas para baixo</tspan><tspan
             x="174.375"
             y="43.743752"
             id="tspan636">(</tspan></text>
<text
           transform="matrix(1,0,0,-1,302.16547,160.68685)"
           style="font-style:italic;font-variant:normal;font-weight:normal;font-stretch:normal;font-size:9.375px;font-family:'Trade Gothic';-inkscape-font-specification:TradeGothic-Oblique;writing-mode:lr-tb;fill:#231f20;fill-opacity:1;fill-rule:nonzero;stroke:none"
           id="text638"><tspan
             x="0 5.2125001 9.8999996 16.153126 21.365625 27.61875 32.306252 36.46875"
             y="0"
             sodipodi:role="line"
             id="tspan640">downwash</tspan></text>
<text
           transform="matrix(1,0,0,-1,343.84672,160.68685)"
           style="font-variant:normal;font-weight:normal;font-stretch:normal;font-size:9.375px;font-family:'Trade Gothic';-inkscape-font-specification:TradeGothic;writing-mode:lr-tb;fill:#231f20;fill-opacity:1;fill-rule:nonzero;stroke:none"
           id="text642"><tspan
             x="0"
             y="0"
             id="tspan644">)</tspan><tspan
             x="-47.606251 -42.393749 -37.706249 -34.584373 -31.4625 -28.856251 -24.168751 -19.481251"
             y="66.871872"
             sodipodi:role="line"
             id="tspan646">Vórtices</tspan><tspan
             x="-49.303123 -44.090626 -39.403126 -36.543751 -31.331249 -26.643749 -23.521875 -18.309376"
             y="77.493752"
             sodipodi:role="line"
             id="tspan648">de borda</tspan><tspan
             x="-46.696877 -41.484375 -36.796875 -33.9375 -30.815624 -25.603125 -20.915625"
             y="88.115623"
             sodipodi:role="line"
             id="tspan650">de fuga</tspan><tspan
             x="-264.62811 -257.85938 -255.25313 -251.09062 -246.40312 -243.79688 -239.63437 -236.77499 -231.5625 -226.875 -224.01562 -218.80313 -215.68124 -210.99374 -206.83125 -202.66875 -197.98125"
             y="45.618752"
             sodipodi:role="line"
             id="tspan652">Níveis de pressão</tspan></text>
<text
           transform="matrix(1,0,0,-1,138.0062,125.6806)"
           style="font-variant:normal;font-weight:normal;font-stretch:normal;font-size:12.5px;font-family:'Trade Gothic';-inkscape-font-specification:TradeGothic;writing-mode:lr-tb;fill:#231f20;fill-opacity:1;fill-rule:nonzero;stroke:none"
           id="text654"><tspan
             x="0"
             y="0"
             id="tspan656">+</tspan><tspan
             x="-21.875"
             y="-6.25"
             id="tspan658">+</tspan><tspan
             x="-40.625"
             y="-12.5"
             id="tspan660">+</tspan><tspan
             x="-53.125"
             y="-21.25"
             id="tspan662">+</tspan><tspan
             x="2.5"
             y="-21.875"
             id="tspan664">–</tspan><tspan
             x="18.75"
             y="-13.125"
             id="tspan666">–</tspan><tspan
             x="-15.625"
             y="-29.375"
             id="tspan668">–</tspan><tspan
             x="-33.125"
             y="-35.625"
             id="tspan670">–</tspan></text>
</g></g></g></svg>