<?xml version="1.0" encoding="UTF-8" standalone="no"?>
<!-- Created with Inkscape (http://www.inkscape.org/) -->

<svg
   xmlns:ns0="http://www.iki.fi/pav/software/textext/"
   xmlns:dc="http://purl.org/dc/elements/1.1/"
   xmlns:cc="http://creativecommons.org/ns#"
   xmlns:rdf="http://www.w3.org/1999/02/22-rdf-syntax-ns#"
   xmlns:svg="http://www.w3.org/2000/svg"
   xmlns="http://www.w3.org/2000/svg"
   xmlns:sodipodi="http://sodipodi.sourceforge.net/DTD/sodipodi-0.dtd"
   xmlns:inkscape="http://www.inkscape.org/namespaces/inkscape"
   id="svg2"
   version="1.1"
   inkscape:version="0.91 r13725"
   xml:space="preserve"
   width="522.77539"
   height="246.09351"
   viewBox="0 0 522.77539 246.09351"
   sodipodi:docname="fig921.svg"><sodipodi:namedview
     pagecolor="#ffffff"
     bordercolor="#666666"
     borderopacity="1"
     objecttolerance="10"
     gridtolerance="10"
     guidetolerance="10"
     inkscape:pageopacity="0"
     inkscape:pageshadow="2"
     inkscape:window-width="1920"
     inkscape:window-height="1008"
     id="namedview4"
     showgrid="false"
     inkscape:zoom="2.2786057"
     inkscape:cx="243.80674"
     inkscape:cy="110.49224"
     inkscape:window-x="-5"
     inkscape:window-y="-5"
     inkscape:window-maximized="1"
     inkscape:current-layer="g704" /><metadata
     id="metadata8"><rdf:RDF><cc:Work
         rdf:about=""><dc:format>image/svg+xml</dc:format><dc:type
           rdf:resource="http://purl.org/dc/dcmitype/StillImage" /><dc:title></dc:title></cc:Work></rdf:RDF></metadata><defs
     id="defs6"><clipPath
       clipPathUnits="userSpaceOnUse"
       id="clipPath18"><path
         d="m 0,0 1058.173,0 0,793.701 L 0,793.701 0,0 Z"
         id="path20"
         inkscape:connector-curvature="0" /></clipPath><clipPath
       clipPathUnits="userSpaceOnUse"
       id="clipPath30"><path
         d="m 980.208,708.66 -71.469,0 0,-17.532 71.469,0 0,17.532 z"
         id="path32"
         inkscape:connector-curvature="0" /></clipPath><clipPath
       clipPathUnits="userSpaceOnUse"
       id="clipPath42"><path
         d="m 980.208,787.797 -71.469,0 0,-79.137 71.469,0 0,79.137 z"
         id="path44"
         inkscape:connector-curvature="0" /></clipPath><clipPath
       clipPathUnits="userSpaceOnUse"
       id="clipPath150"><path
         d="m 73.701,349.002 347.418,0 0,304.848 -347.418,0 0,-304.848 z"
         id="path152"
         inkscape:connector-curvature="0" /></clipPath><clipPath
       clipPathUnits="userSpaceOnUse"
       id="clipPath302"><path
         d="m 73.701,349.002 347.418,0 0,304.848 -347.418,0 0,-304.848 z"
         id="path304"
         inkscape:connector-curvature="0" /></clipPath><clipPath
       clipPathUnits="userSpaceOnUse"
       id="clipPath494"><path
         d="m 76.014,68.805 295.254,0 0,171.567 -295.254,0 0,-171.567 z"
         id="path496"
         inkscape:connector-curvature="0" /></clipPath><clipPath
       clipPathUnits="userSpaceOnUse"
       id="clipPath676"><path
         d="m 0,0 1058.173,0 0,793.701 L 0,793.701 0,0 Z"
         id="path678"
         inkscape:connector-curvature="0" /></clipPath><clipPath
       clipPathUnits="userSpaceOnUse"
       id="clipPath706"><path
         d="m 520.668,332.748 423.792,0 0,201.69 -423.792,0 0,-201.69 z"
         id="path708"
         inkscape:connector-curvature="0" /></clipPath><clipPath
       clipPathUnits="userSpaceOnUse"
       id="clipPath894"><path
         d="m 600.048,60.912 267.498,0 0,135 -267.498,0 0,-135 z"
         id="path896"
         inkscape:connector-curvature="0" /></clipPath><clipPath
       clipPathUnits="userSpaceOnUse"
       id="clipPath1012"><path
         d="m 0,0 1058.173,0 0,793.701 L 0,793.701 0,0 Z"
         id="path1014"
         inkscape:connector-curvature="0" /></clipPath><clipPath
       clipPathUnits="userSpaceOnUse"
       id="clipPath706-8"><path
         d="m 520.668,332.748 423.792,0 0,201.69 -423.792,0 0,-201.69 z"
         id="path708-9"
         inkscape:connector-curvature="0" /></clipPath></defs><g
     id="g10"
     inkscape:groupmode="layer"
     inkscape:label="Capítulo 9"
     transform="matrix(1.25,0,0,-1.25,-502.01015,538.88139)"><g
       id="g702"
       transform="translate(-122.44416,-101.14679)"><g
         id="g704"
         clip-path="url(#clipPath706-8)"><g
           id="g710"
           transform="translate(658.4709,460.4083)"><path
             d="m 0,0 c 0,0 3.55,-1.281 5,-1.281 -1.45,0 -5,-1.283 -5,-1.283 L 0.834,-1.329 0,0 Z"
             style="fill:#231f20;fill-opacity:1;fill-rule:nonzero;stroke:none"
             id="path712"
             inkscape:connector-curvature="0" /></g><g
           id="g714"
           transform="translate(660.2416,459.1265)"><path
             d="M 0,0 -40,0"
             style="fill:none;stroke:#231f20;stroke-width:0.625;stroke-linecap:butt;stroke-linejoin:miter;stroke-miterlimit:4;stroke-dasharray:none;stroke-opacity:1"
             id="path716"
             inkscape:connector-curvature="0" /></g><g
           id="g718"
           transform="translate(888.1786,419.0228)"><path
             d="m 0,0 c 0,0 1.281,3.55 1.281,5 0,-1.45 1.283,-5 1.283,-5 L 1.33,0.834 0,0 Z"
             style="fill:#231f20;fill-opacity:1;fill-rule:nonzero;stroke:none"
             id="path720"
             inkscape:connector-curvature="0" /></g><g
           id="g722"
           transform="translate(889.4603,420.794)"><path
             d="M 0,0 0,-38.854"
             style="fill:none;stroke:#231f20;stroke-width:0.625;stroke-linecap:butt;stroke-linejoin:miter;stroke-miterlimit:4;stroke-dasharray:none;stroke-opacity:1"
             id="path724"
             inkscape:connector-curvature="0" /></g><g
           id="g726"
           transform="translate(665.7103,500.6896)"><path
             d="m 0,0 c 0,0 -3.75,3.75 -9.375,3.75 -5.625,0 -13.125,-7.5 -18.75,-15.625 -5.625,-8.125 -81.25,-136.875 -81.25,-136.875 0,0 125,124.375 130.625,128.125 5.625,3.75 11.875,7.5 15.625,7.5 3.75,0 7.5,-2.5 7.5,-6.25"
             style="fill:none;stroke:#1a64b7;stroke-width:1.25;stroke-linecap:butt;stroke-linejoin:miter;stroke-miterlimit:4;stroke-dasharray:none;stroke-opacity:1"
             id="path728"
             inkscape:connector-curvature="0" /></g><g
           id="g730"
           transform="translate(927.5853,474.4396)"><path
             d="m 0,0 c -76.875,-118.125 -154.375,-103.75 -154.375,-103.75 0,0 118.75,-5.625 152.5,28.125"
             style="fill:none;stroke:#1a64b7;stroke-width:1.25;stroke-linecap:butt;stroke-linejoin:miter;stroke-miterlimit:4;stroke-dasharray:none;stroke-opacity:1"
             id="path732"
             inkscape:connector-curvature="0" /></g><g
           id="g734"
           transform="translate(941.9601,531.9394)"><path
             d="m 0,0 -180,0 0,-180 180,0 0,180 z"
             style="fill:none;stroke:#231f20;stroke-width:0.625;stroke-linecap:butt;stroke-linejoin:miter;stroke-miterlimit:4;stroke-dasharray:none;stroke-opacity:1"
             id="path736"
             inkscape:connector-curvature="0" /></g><g
           id="g738"
           transform="translate(716.9601,531.9394)"><path
             d="m 0,0 -180,0 0,-180 180,0 0,180 z"
             style="fill:none;stroke:#231f20;stroke-width:0.625;stroke-linecap:butt;stroke-linejoin:miter;stroke-miterlimit:4;stroke-dasharray:none;stroke-opacity:1"
             id="path740"
             inkscape:connector-curvature="0" /></g><text
           transform="matrix(0,1,1,0,531.3353,378.4752)"
           style="font-variant:normal;font-weight:normal;font-stretch:normal;font-size:9.375px;font-family:'Trade Gothic';-inkscape-font-specification:TradeGothic;writing-mode:lr-tb;fill:#231f20;fill-opacity:1;fill-rule:nonzero;stroke:none"
           id="text742"><tspan
             x="0 5.7281251 10.415625 15.103125 18.225 20.831249 25.518749 28.125 32.8125 38.025002 41.146873 45.834373 48.693748 53.90625 58.59375 61.453125 65.615623 70.828125 74.990623 78.112503 82.800003 88.012497 91.134377 95.821877 100.50938 105.19688 109.88438 112.74375"
             y="0"
             sodipodi:role="line"
             id="tspan744">Coeficiente de sustentação,</tspan></text>
<text
           transform="matrix(0,1,1,0,531.3353,494.07832)"
           style="font-style:italic;font-variant:normal;font-weight:normal;font-stretch:normal;font-size:9.375px;font-family:Times;-inkscape-font-specification:Times-Italic;writing-mode:lr-tb;fill:#231f20;fill-opacity:1;fill-rule:nonzero;stroke:none"
           id="text746"><tspan
             x="0"
             y="0"
             id="tspan748">C</tspan></text>
<text
           transform="matrix(0,1,1,0,533.8353,500.3303)"
           style="font-style:italic;font-variant:normal;font-weight:normal;font-stretch:normal;font-size:6.875px;font-family:Times;-inkscape-font-specification:Times-Italic;writing-mode:lr-tb;fill:#231f20;fill-opacity:1;fill-rule:nonzero;stroke:none"
           id="text750"><tspan
             x="0"
             y="0"
             id="tspan752">L</tspan></text>
<text
           transform="matrix(1,0,0,-1,793.2878,337.8771)"
           style="font-variant:normal;font-weight:normal;font-stretch:normal;font-size:9.375px;font-family:'Trade Gothic';-inkscape-font-specification:TradeGothic;writing-mode:lr-tb;fill:#231f20;fill-opacity:1;fill-rule:nonzero;stroke:none"
           id="text754"><tspan
             x="0 5.7281251 10.415625 15.103125 18.225 20.831249 25.518749 28.125 32.8125 38.025002 41.146873 45.834373 48.693748 53.90625 58.59375 61.453125 65.615623 70.828125 74.990623 78.112503 82.800003 88.012497 91.134377 95.821877 100.50938 105.19688 109.88438 112.74375"
             y="0"
             sodipodi:role="line"
             id="tspan756">Coeficiente de sustentação,</tspan></text>
<text
           transform="matrix(1,0,0,-1,908.89093,337.8771)"
           style="font-style:italic;font-variant:normal;font-weight:normal;font-stretch:normal;font-size:9.375px;font-family:Times;-inkscape-font-specification:Times-Italic;writing-mode:lr-tb;fill:#231f20;fill-opacity:1;fill-rule:nonzero;stroke:none"
           id="text758"><tspan
             x="0"
             y="0"
             id="tspan760">C</tspan></text>
<text
           transform="matrix(1,0,0,-1,915.1429,335.3771)"
           style="font-style:italic;font-variant:normal;font-weight:normal;font-stretch:normal;font-size:6.875px;font-family:Times;-inkscape-font-specification:Times-Italic;writing-mode:lr-tb;fill:#231f20;fill-opacity:1;fill-rule:nonzero;stroke:none"
           id="text762"><tspan
             x="0"
             y="0"
             id="tspan764">L</tspan></text>
<text
           transform="matrix(0,1,1,0,755.7103,388.3249)"
           style="font-variant:normal;font-weight:normal;font-stretch:normal;font-size:9.375px;font-family:'Trade Gothic';-inkscape-font-specification:TradeGothic;writing-mode:lr-tb;fill:#231f20;fill-opacity:1;fill-rule:nonzero;stroke:none"
           id="text766"><tspan
             x="0 5.7281251 10.415625 15.103125 18.225 20.831249 25.518749 28.125 32.8125 38.025002 41.146873 45.834373 48.693748 53.90625 58.59375 61.453125 66.140625 69.262497 72.384377 77.071877 81.234375 84.356247 89.043747 91.903122"
             y="0"
             sodipodi:role="line"
             id="tspan768">Coeficiente de arrasto,</tspan></text>
<text
           transform="matrix(0,1,1,0,755.7103,483.0874)"
           style="font-style:italic;font-variant:normal;font-weight:normal;font-stretch:normal;font-size:9.375px;font-family:Times;-inkscape-font-specification:Times-Italic;writing-mode:lr-tb;fill:#231f20;fill-opacity:1;fill-rule:nonzero;stroke:none"
           id="text770"><tspan
             x="0"
             y="0"
             id="tspan772">C</tspan></text>
<text
           transform="matrix(0,1,1,0,758.2103,489.3395)"
           style="font-style:italic;font-variant:normal;font-weight:normal;font-stretch:normal;font-size:6.875px;font-family:Times;-inkscape-font-specification:Times-Italic;writing-mode:lr-tb;fill:#231f20;fill-opacity:1;fill-rule:nonzero;stroke:none"
           id="text774"><tspan
             x="0"
             y="0"
             id="tspan776">D</tspan></text>
<text
           transform="matrix(1,0,0,-1,553.5278,337.8771)"
           style="font-variant:normal;font-weight:normal;font-stretch:normal;font-size:9.375px;font-family:'Trade Gothic';-inkscape-font-specification:TradeGothic;writing-mode:lr-tb;fill:#231f20;fill-opacity:1;fill-rule:nonzero;stroke:none"
           id="text778"><tspan
             x="0 5.7281251 10.940625 15.628125 20.840626 23.446875 28.134375 30.99375 35.681252 40.368752 45.056252 52.865623 57.553123 60.674999 63.796875 66.403122 71.090622 75.778122 78.637497 83.849998 88.537498 91.396873 96.084373 99.206253 103.89375 109.10625 114.31875 119.00625"
             y="0"
             sodipodi:role="line"
             id="tspan780">Ângulo geométrico de ataque,</tspan></text>
<text
           transform="matrix(0.97991787,0,-0.19940153,-0.97990742,677.7526,337.8771)"
           style="font-variant:normal;font-weight:normal;font-stretch:normal;font-size:9.56712818px;font-family:Symbol;-inkscape-font-specification:Symbol;writing-mode:lr-tb;fill:#231f20;fill-opacity:1;fill-rule:nonzero;stroke:none"
           id="text782"><tspan
             x="0"
             y="0"
             id="tspan784" /></text>
<text
           transform="matrix(0.97991787,0,-0.19940153,-0.97990742,891.8478,408.2415)"
           style="font-variant:normal;font-weight:normal;font-stretch:normal;font-size:9.56712818px;font-family:Symbol;-inkscape-font-specification:Symbol;writing-mode:lr-tb;fill:#231f20;fill-opacity:1;fill-rule:nonzero;stroke:none"
           id="text810" />
<path
           d="m 919.876,408.607 -9.375,0 0,-2.5 9.375,0 0,2.5 z"
           style="fill:#ffffff;fill-opacity:1;fill-rule:nonzero;stroke:none"
           id="path816"
           inkscape:connector-curvature="0" /><text
           transform="matrix(1,0,0,-1,930.9881,412.3565)"
           style="font-style:italic;font-variant:normal;font-weight:normal;font-stretch:normal;font-size:6.875px;font-family:Times;-inkscape-font-specification:Times-Italic;writing-mode:lr-tb;fill:#231f20;fill-opacity:1;fill-rule:nonzero;stroke:none"
           id="text822"><tspan
             x="0"
             y="0"
             id="tspan824" /></text>
<text
           transform="matrix(1,0,0,-1,926.90413,402.98462)"
           style="font-style:italic;font-variant:normal;font-weight:normal;font-stretch:normal;font-size:9.375px;font-family:Times;-inkscape-font-specification:Times-Italic;writing-mode:lr-tb;fill:#231f20;fill-opacity:1;fill-rule:nonzero;stroke:none"
           id="text832"><tspan
             sodipodi:role="line"
             id="tspan834"
             x="0"
             y="0" /><tspan
             x="-291.14062 -285.41251"
             y="-106.04063"
             sodipodi:role="line"
             id="tspan836">AR</tspan></text>
<text
           transform="matrix(1,0,0,-1,650.07912,509.02525)"
           style="font-variant:normal;font-weight:normal;font-stretch:normal;font-size:9.375px;font-family:'Trade Gothic';-inkscape-font-specification:TradeGothic;writing-mode:lr-tb;fill:#231f20;fill-opacity:1;fill-rule:nonzero;stroke:none"
           id="text838"><tspan
             x="0 5.625"
             y="0"
             sodipodi:role="line"
             id="tspan840">=</tspan></text>
<text
           transform="matrix(1,0,0,-1,678.57912,497.25962)"
           style="font-style:italic;font-variant:normal;font-weight:normal;font-stretch:normal;font-size:9.375px;font-family:Times;-inkscape-font-specification:Times-Italic;writing-mode:lr-tb;fill:#231f20;fill-opacity:1;fill-rule:nonzero;stroke:none"
           id="text846"><tspan
             x="0 5.7281251"
             y="0"
             sodipodi:role="line"
             id="tspan848">AR</tspan></text>
<text
           transform="matrix(1,0,0,-1,692.89475,497.25962)"
           style="font-variant:normal;font-weight:normal;font-stretch:normal;font-size:9.375px;font-family:'Trade Gothic';-inkscape-font-specification:TradeGothic;writing-mode:lr-tb;fill:#231f20;fill-opacity:1;fill-rule:nonzero;stroke:none"
           id="text850"><tspan
             x="0"
             y="0"
             id="tspan852">=</tspan></text>
<text
           transform="matrix(1,0,0,-1,702.5135,501.00962)"
           style="font-style:italic;font-variant:normal;font-weight:normal;font-stretch:normal;font-size:9.375px;font-family:Times;-inkscape-font-specification:Times-Italic;writing-mode:lr-tb;fill:#231f20;fill-opacity:1;fill-rule:nonzero;stroke:none"
           id="text854"><tspan
             x="0"
             y="0"
             id="tspan856">b</tspan></text>
<text
           transform="matrix(1,0,0,-1,707.2038,504.7527)"
           style="font-variant:normal;font-weight:normal;font-stretch:normal;font-size:6.875px;font-family:'Trade Gothic';-inkscape-font-specification:TradeGothic;writing-mode:lr-tb;fill:#231f20;fill-opacity:1;fill-rule:nonzero;stroke:none"
           id="text858"><tspan
             x="0"
             y="0"
             id="tspan860">2</tspan></text>
<text
           transform="matrix(1,0,0,-1,700.7728,500.3777)"
           style="font-variant:normal;font-weight:normal;font-stretch:normal;font-size:9.375px;font-family:'Trade Gothic';-inkscape-font-specification:TradeGothic;writing-mode:lr-tb;fill:#231f20;fill-opacity:1;fill-rule:nonzero;stroke:none"
           id="text862"><tspan
             x="0 3.84375 7.6875"
             y="0"
             sodipodi:role="line"
             id="tspan864">___</tspan></text>
<text
           transform="matrix(1,0,0,-1,702.37593,491.63083)"
           style="font-style:italic;font-variant:normal;font-weight:normal;font-stretch:normal;font-size:9.375px;font-family:Times;-inkscape-font-specification:Times-Italic;writing-mode:lr-tb;fill:#231f20;fill-opacity:1;fill-rule:nonzero;stroke:none"
           id="text866"><tspan
             x="0"
             y="0"
             id="tspan868">A</tspan></text>
<text
           transform="matrix(1,0,0,-1,708.1056,489.1277)"
           style="font-style:italic;font-variant:normal;font-weight:normal;font-stretch:normal;font-size:6.875px;font-family:Times;-inkscape-font-specification:Times-Italic;writing-mode:lr-tb;fill:#231f20;fill-opacity:1;fill-rule:nonzero;stroke:none"
           id="text870"><tspan
             x="0"
             y="0"
             id="tspan872">p</tspan></text>
<g
           id="content"
           transform="matrix(1.1379079,0,0,1.137908,405.06782,-294.65633)"
           xml:space="preserve"
           stroke-miterlimit="10.433"
           font-style="normal"
           font-variant="normal"
           font-weight="normal"
           font-stretch="normal"
           font-size-adjust="none"
           letter-spacing="normal"
           word-spacing="normal"
           ns0:text="$\\infty$"
           ns0:preamble=""
           style="font-style:normal;font-variant:normal;font-weight:normal;font-stretch:normal;letter-spacing:normal;word-spacing:normal;text-anchor:start;fill:none;fill-opacity:1;fill-rule:evenodd;stroke:#000000;stroke-width:0.8788057;stroke-linecap:butt;stroke-linejoin:miter;stroke-miterlimit:10.43299961;stroke-dasharray:none;stroke-dashoffset:0;stroke-opacity:1"><path
             d="m 228.49,709.82 -0.05,0.06 -0.05,0.06 -0.04,0.05 -0.05,0.06 -0.04,0.05 -0.04,0.05 -0.03,0.04 -0.04,0.04 -0.03,0.05 -0.03,0.04 -0.03,0.03 -0.03,0.04 -0.03,0.03 -0.03,0.03 -0.03,0.03 -0.02,0.03 -0.03,0.03 -0.02,0.03 -0.03,0.02 -0.02,0.03 -0.05,0.05 -0.04,0.04 -0.05,0.05 -0.05,0.04 -0.05,0.04 -0.03,0.03 -0.03,0.02 c -0.56,0.45 -1.11,0.63 -1.62,0.63 -1.16,0 -1.92,-1.1 -1.92,-2.26 l 0.22,0 c 0,0.97 0.67,1.78 1.54,1.78 0.58,0 1.02,-0.42 1.23,-0.63 0.25,-0.26 0.48,-0.57 1.09,-1.36 l 0,0 c -0.41,-0.71 -1.15,-1.72 -2.27,-1.72 -1.05,0 -1.59,1.04 -1.59,1.93 l -0.22,0 c 0,-1.14 0.73,-2.24 1.88,-2.24 1.14,0 1.97,0.9 2.46,1.69 0.53,-0.67 0.65,-0.82 0.96,-1.07 0.56,-0.45 1.12,-0.62 1.62,-0.62 1.17,0 1.92,1.09 1.92,2.25 l -0.22,0 c 0,-0.97 -0.66,-1.78 -1.54,-1.78 -0.57,0 -1.02,0.42 -1.23,0.63 -0.25,0.27 -0.48,0.57 -1.09,1.36 l 0,0 c 0.41,0.72 1.15,1.72 2.27,1.72 1.06,0 1.59,-1.04 1.59,-1.93 l 0.22,0 c 0,1.14 -0.73,2.25 -1.88,2.25 -1.14,0 -1.97,-0.91 -2.45,-1.7 z"
             id="path5602"
             inkscape:connector-curvature="0"
             style="fill:#000000;stroke-width:0" /></g><g
           ns0:preamble=""
           ns0:text="$\\alpha$"
           word-spacing="normal"
           letter-spacing="normal"
           font-size-adjust="none"
           font-stretch="normal"
           font-weight="normal"
           font-variant="normal"
           font-style="normal"
           stroke-miterlimit="10.433"
           xml:space="preserve"
           transform="matrix(1.1379079,0,0,1.137908,424.37787,-466.69136)"
           id="g5827"
           style="font-style:normal;font-variant:normal;font-weight:normal;font-stretch:normal;letter-spacing:normal;word-spacing:normal;text-anchor:start;fill:none;fill-opacity:1;fill-rule:evenodd;stroke:#000000;stroke-width:0.8788057;stroke-linecap:butt;stroke-linejoin:miter;stroke-miterlimit:10.43299961;stroke-dasharray:none;stroke-dashoffset:0;stroke-opacity:1"><path
             id="path5829"
             d="m 228.18,709.47 0,0.07 0,0.07 -0.01,0.07 0,0.07 -0.02,0.13 -0.01,0.12 -0.03,0.12 -0.02,0.12 -0.03,0.1 -0.04,0.11 -0.04,0.09 -0.04,0.1 -0.04,0.08 -0.05,0.08 -0.06,0.08 -0.05,0.07 -0.06,0.07 -0.06,0.06 -0.06,0.05 -0.06,0.06 -0.07,0.05 -0.06,0.04 -0.07,0.04 -0.07,0.04 -0.07,0.03 -0.07,0.03 -0.08,0.02 -0.07,0.02 -0.07,0.02 -0.07,0.01 -0.07,0.01 -0.07,0.01 -0.07,0 -0.07,0.01 c -1.37,0 -2.68,-1.43 -2.68,-2.83 0,-0.92 0.6,-1.67 1.61,-1.67 l 0.02,0.21 c -0.59,0 -0.89,0.45 -0.89,1.09 0,0.48 0.26,1.56 0.57,2.06 0.47,0.73 1.01,0.92 1.36,0.92 0.98,0 0.98,-1.3 0.98,-2.08 0,-0.37 0,-0.94 0.02,-1.11 l 0,0 c -0.87,-0.77 -1.64,-0.88 -2.04,-0.88 l -0.02,-0.21 c 0.63,0 1.34,0.22 2.1,0.83 0.13,-0.53 0.46,-0.83 0.91,-0.83 0.52,0 0.83,0.54 0.83,0.7 0,0.07 -0.06,0.1 -0.12,0.1 -0.07,0 -0.1,-0.03 -0.13,-0.1 -0.18,-0.49 -0.53,-0.49 -0.55,-0.49 -0.31,0 -0.31,0.78 -0.31,1.02 0,0.21 0,0.23 0.1,0.34 0.93,1.18 1.14,2.33 1.14,2.34 0,0.02 -0.01,0.1 -0.12,0.1 -0.1,0 -0.1,-0.03 -0.15,-0.21 -0.18,-0.62 -0.5,-1.38 -0.97,-1.97 z"
             inkscape:connector-curvature="0"
             style="fill:#000000;stroke-width:0" /></g><g
           id="g6030"
           transform="matrix(0.94567622,0,0,0.94567623,416.15912,-199.08507)"
           xml:space="preserve"
           stroke-miterlimit="10.433"
           font-style="normal"
           font-variant="normal"
           font-weight="normal"
           font-stretch="normal"
           font-size-adjust="none"
           letter-spacing="normal"
           word-spacing="normal"
           ns0:text="$\\Delta\\alpha\\approx \\frac{C_L}{\\pi AR}$"
           ns0:preamble=""
           style="font-style:normal;font-variant:normal;font-weight:normal;font-stretch:normal;letter-spacing:normal;word-spacing:normal;text-anchor:start;fill:none;fill-opacity:1;fill-rule:evenodd;stroke:#000000;stroke-width:1.05744433;stroke-linecap:butt;stroke-linejoin:miter;stroke-miterlimit:10.43299961;stroke-dasharray:none;stroke-dashoffset:0;stroke-opacity:1"><path
             d="m 227.83,714.06 -0.01,0.01 0,0.01 -0.01,0.01 0,0.01 -0.01,0.01 -0.01,0.01 0,0.01 -0.01,0.01 0,0.01 -0.01,0.01 0,0.01 -0.01,0 0,0.01 -0.01,0.01 -0.01,0 0,0.01 -0.01,0 -0.01,0.01 0,0 -0.01,0.01 -0.01,0 -0.01,0 -0.01,0.01 -0.01,0 -0.01,0 -0.01,0 -0.01,0 -0.01,0.01 -0.02,0 -0.01,0 -0.01,0 -0.02,0 c -0.17,0 -0.19,-0.05 -0.26,-0.18 l -0.06,-0.82 2.68,-5.36 -5.36,0 2.68,5.36 0.06,0.82 -3.36,-6.74 c -0.05,-0.09 -0.05,-0.11 -0.05,-0.12 0,-0.08 0.06,-0.08 0.22,-0.08 l 6.9,0 c 0.16,0 0.22,0 0.22,0.08 0,0.01 0,0.03 -0.05,0.12 z"
             id="path6032"
             inkscape:connector-curvature="0"
             style="fill:#000000;stroke-width:0" /><path
             d="m 236.48,709.47 0,0.07 0,0.07 -0.01,0.07 0,0.07 -0.01,0.13 -0.02,0.12 -0.02,0.12 -0.03,0.12 -0.03,0.1 -0.04,0.11 -0.03,0.09 -0.05,0.1 -0.04,0.08 -0.05,0.08 -0.05,0.08 -0.06,0.07 -0.06,0.07 -0.05,0.06 -0.07,0.05 -0.06,0.06 -0.07,0.05 -0.06,0.04 -0.07,0.04 -0.07,0.04 -0.07,0.03 -0.07,0.03 -0.07,0.02 -0.07,0.02 -0.08,0.02 -0.07,0.01 -0.07,0.01 -0.07,0.01 -0.07,0 -0.07,0.01 c -1.36,0 -2.68,-1.43 -2.68,-2.83 0,-0.92 0.6,-1.67 1.61,-1.67 l 0.02,0.21 c -0.59,0 -0.89,0.45 -0.89,1.09 0,0.48 0.26,1.56 0.58,2.06 0.46,0.73 1,0.92 1.35,0.92 0.98,0 0.98,-1.3 0.98,-2.08 0,-0.37 0,-0.94 0.02,-1.11 l 0,0 c -0.87,-0.77 -1.64,-0.88 -2.04,-0.88 l -0.02,-0.21 c 0.63,0 1.35,0.22 2.1,0.83 0.13,-0.53 0.46,-0.83 0.91,-0.83 0.53,0 0.83,0.54 0.83,0.7 0,0.07 -0.06,0.1 -0.11,0.1 -0.08,0 -0.1,-0.03 -0.13,-0.1 -0.18,-0.49 -0.54,-0.49 -0.56,-0.49 -0.31,0 -0.31,0.78 -0.31,1.02 0,0.21 0,0.23 0.1,0.34 0.93,1.18 1.14,2.33 1.14,2.34 0,0.02 -0.01,0.1 -0.12,0.1 -0.09,0 -0.09,-0.03 -0.14,-0.21 -0.18,-0.62 -0.51,-1.38 -0.98,-1.97 z"
             id="path6034"
             inkscape:connector-curvature="0"
             style="fill:#000000;stroke-width:0" /><path
             d="m 248.1,711.61 -0.01,0.02 0,0.02 0,0.02 0,0.02 0,0.01 0,0.02 0,0.02 -0.01,0.01 0,0.01 0,0.02 -0.01,0.01 0,0.01 0,0.01 -0.01,0.01 0,0.01 -0.01,0.01 0,0.01 -0.01,0.01 0,0.01 -0.01,0 0,0.01 -0.01,0.01 -0.01,0 0,0.01 -0.01,0 -0.01,0 0,0.01 -0.01,0 0,0 -0.01,0 -0.01,0 0,0 c -0.04,0 -0.13,-0.04 -0.14,-0.26 -0.04,-0.69 -0.74,-1.1 -1.39,-1.1 -0.57,0 -1.07,0.31 -1.59,0.66 -0.54,0.36 -1.07,0.71 -1.72,0.71 -0.92,0 -1.66,-0.7 -1.66,-1.62 0,-0.21 0.08,-0.29 0.14,-0.29 0.1,0 0.14,0.19 0.14,0.22 0.05,0.84 0.86,1.14 1.38,1.14 0.58,0 1.08,-0.31 1.59,-0.66 0.54,-0.36 1.08,-0.71 1.72,-0.71 0.93,0 1.67,0.7 1.67,1.61 z"
             id="path6036"
             inkscape:connector-curvature="0"
             style="fill:#000000;stroke-width:0" /><path
             d="m 248.1,709.29 -0.01,0.01 0,0.02 0,0.01 0,0.01 0,0.01 0,0.02 0,0.01 0,0.01 0,0.01 0,0.01 0,0.01 -0.01,0.01 0,0.01 0,0 0,0.01 0,0.01 -0.01,0.01 0,0.01 0,0 0,0.01 -0.01,0.01 0,0 0,0.01 0,0 -0.01,0.01 0,0.01 -0.01,0.01 0,0 -0.01,0.01 0,0.01 -0.01,0.01 -0.01,0 0,0.01 -0.01,0 0,0 -0.01,0.01 0,0 -0.01,0 0,0 -0.01,0.01 0,0 -0.01,0 0,0 0,0 0,0 c -0.04,0 -0.13,-0.05 -0.14,-0.27 -0.04,-0.68 -0.74,-1.09 -1.39,-1.09 -0.57,0 -1.07,0.31 -1.59,0.65 -0.54,0.36 -1.07,0.72 -1.72,0.72 -0.92,0 -1.66,-0.71 -1.66,-1.62 0,-0.22 0.08,-0.3 0.14,-0.3 0.1,0 0.14,0.19 0.14,0.23 0.05,0.83 0.86,1.13 1.38,1.13 0.58,0 1.08,-0.31 1.59,-0.65 0.54,-0.36 1.08,-0.72 1.72,-0.72 0.95,0 1.67,0.74 1.67,1.61 z"
             id="path6038"
             inkscape:connector-curvature="0"
             style="fill:#000000;stroke-width:0" /><path
             d="m 261.48,716.01 0,0.01 0,0 0,0 0,0.01 0,0 -0.01,0 0,0.01 0,0 0,0.01 0,0 0,0 0,0.01 -0.01,0 0,0 0,0.01 0,0 0,0 -0.01,0.01 0,0 0,0 -0.01,0.01 0,0 -0.01,0 0,0 0,0.01 -0.01,0 0,0 -0.01,0 0,0 0,0 -0.01,0 0,0 0,0 -0.01,0 0,0 0,0 c -0.05,0 -0.07,-0.01 -0.13,-0.08 l -0.51,-0.54 c -0.06,0.09 -0.45,0.62 -1.31,0.62 -1.69,0 -3.35,-1.49 -3.35,-3.06 0,-1.14 0.89,-1.96 2.14,-1.96 0.38,0 1.05,0.07 1.76,0.68 0.55,0.46 0.71,1.07 0.71,1.12 0,0.09 -0.09,0.09 -0.12,0.09 -0.09,0 -0.11,-0.03 -0.13,-0.11 -0.28,-0.95 -1.26,-1.53 -2.1,-1.53 -0.74,0 -1.56,0.39 -1.56,1.49 0,0.2 0.05,1.3 0.85,2.18 0.48,0.53 1.21,0.85 1.87,0.85 0.81,0 1.28,-0.58 1.28,-1.36 0,-0.19 -0.02,-0.24 -0.02,-0.28 0,-0.1 0.09,-0.1 0.13,-0.1 0.11,0 0.11,0.03 0.15,0.16 z"
             id="path6040"
             inkscape:connector-curvature="0"
             style="fill:#000000;stroke-width:0" /><path
             d="m 263.69,713.18 0.01,0.02 0,0.01 0,0.01 0,0.01 0.01,0.01 0,0.01 0,0 0.01,0.01 0,0.01 0,0.01 0.01,0 0,0.01 0.01,0.01 0,0 0,0.01 0.01,0 0,0.01 0.01,0 0.01,0.01 0,0 0.01,0.01 0.01,0 0,0 0.01,0.01 0.01,0 0.01,0 0.01,0 0,0.01 0.01,0 0.01,0 0.02,0 0.01,0 c 0.14,0.02 0.24,0.02 0.37,0.02 0.15,0 0.21,0 0.21,0.14 0,0.06 -0.04,0.09 -0.09,0.09 -0.13,0 -0.27,-0.02 -0.4,-0.02 -0.14,0 -0.27,0 -0.41,0 -0.13,0 -0.26,0 -0.38,0 -0.12,0 -0.25,0.02 -0.36,0.02 -0.03,0 -0.12,0 -0.12,-0.14 0,-0.09 0.06,-0.09 0.18,-0.09 0.05,0 0.22,0 0.32,-0.03 0,-0.06 0,-0.07 -0.01,-0.12 l -0.66,-2.6 c -0.04,-0.15 -0.04,-0.19 -0.42,-0.19 -0.13,0 -0.21,0 -0.21,-0.14 0,-0.09 0.08,-0.09 0.17,-0.09 l 2.82,0 c 0.13,0 0.13,0.01 0.18,0.12 0.05,0.13 0.44,1.12 0.44,1.15 0,0.04 -0.03,0.09 -0.11,0.09 -0.07,0 -0.07,-0.02 -0.13,-0.15 -0.26,-0.64 -0.58,-0.98 -1.4,-0.98 l -0.69,0 c -0.04,0 -0.11,0 -0.16,0.01 0,0.04 0,0.05 0.01,0.09 z"
             id="path6042"
             inkscape:connector-curvature="0"
             style="fill:#000000;stroke-width:0" /><line
             x1="252.62"
             y1="709.62"
             x2="269.56"
             y2="709.62"
             id="line6044"
             style="stroke-width:0.42086285" /><path
             d="m 254.79,706.21 0.83,0 c -0.11,-0.41 -0.26,-1.05 -0.26,-1.6 0,-0.27 0.04,-0.46 0.08,-0.61 0.11,-0.35 0.2,-0.38 0.31,-0.38 0.16,0 0.33,0.15 0.33,0.31 0,0.06 -0.02,0.09 -0.06,0.16 -0.13,0.25 -0.26,0.65 -0.26,1.22 0,0.13 0,0.41 0.1,0.9 l 0.87,0 c 0.13,0 0.18,0 0.26,0.06 0.1,0.07 0.12,0.18 0.12,0.21 0,0.21 -0.18,0.21 -0.3,0.21 l -2.63,0 c -0.28,0 -0.48,-0.07 -0.79,-0.36 -0.18,-0.16 -0.45,-0.53 -0.45,-0.6 0,-0.08 0.09,-0.08 0.11,-0.08 0.08,0 0.09,0.01 0.13,0.08 0.36,0.48 0.79,0.48 0.94,0.48 l 0.42,0 c -0.21,-0.76 -0.59,-1.58 -0.8,-2 -0.04,-0.09 -0.11,-0.24 -0.13,-0.26 -0.01,-0.03 -0.02,-0.06 -0.02,-0.11 0,-0.11 0.09,-0.22 0.25,-0.22 0.27,0 0.35,0.31 0.52,0.94 z"
             id="path6046"
             inkscape:connector-curvature="0"
             style="fill:#000000;stroke-width:0" /><path
             d="m 258.97,704.52 -0.03,-0.03 -0.02,-0.03 -0.02,-0.04 -0.02,-0.03 -0.03,-0.03 -0.02,-0.03 -0.02,-0.02 -0.02,-0.03 -0.03,-0.03 -0.02,-0.02 -0.02,-0.03 -0.03,-0.02 -0.02,-0.02 -0.03,-0.02 -0.02,-0.02 -0.03,-0.02 -0.02,-0.02 -0.03,-0.01 -0.03,-0.02 -0.03,-0.01 -0.02,-0.02 -0.03,-0.01 -0.03,-0.01 -0.03,-0.01 -0.04,-0.01 -0.03,-0.01 -0.03,-0.01 -0.03,0 -0.04,-0.01 -0.04,0 -0.03,-0.01 -0.04,0 c -0.07,-0.01 -0.16,-0.01 -0.16,-0.15 0,-0.07 0.06,-0.1 0.1,-0.1 0.18,0 0.41,0.03 0.6,0.03 0.22,0 0.5,-0.03 0.71,-0.03 0.04,0 0.14,0 0.14,0.15 0,0.09 -0.09,0.1 -0.12,0.1 -0.05,0.01 -0.3,0.02 -0.3,0.21 0,0.08 0.07,0.2 0.1,0.26 l 0.56,0.87 1.99,0 -0.03,0.25 -1.79,0 1.46,2.27 0.33,-2.27 0.03,-0.25 0.17,-1.16 c -0.03,-0.07 -0.07,-0.18 -0.48,-0.18 -0.09,0 -0.18,0 -0.18,-0.15 0,-0.03 0.02,-0.1 0.11,-0.1 0.2,0 0.69,0.03 0.9,0.03 0.12,0 0.28,-0.01 0.41,-0.01 0.12,-0.01 0.27,-0.02 0.4,-0.02 0.08,0 0.13,0.06 0.13,0.15 0,0.1 -0.08,0.1 -0.19,0.1 -0.4,0 -0.42,0.06 -0.44,0.22 l -0.61,4.29 c -0.02,0.15 -0.04,0.2 -0.17,0.2 -0.13,0 -0.17,-0.06 -0.24,-0.16 z"
             id="path6048"
             inkscape:connector-curvature="0"
             style="fill:#000000;stroke-width:0" /><path
             d="m 267.66,706.05 0.08,0.02 0.08,0.02 0.07,0.03 0.08,0.02 0.07,0.03 0.07,0.02 0.07,0.03 0.08,0.03 0.06,0.04 0.07,0.03 0.07,0.04 0.06,0.03 0.06,0.04 0.06,0.04 0.06,0.04 0.06,0.04 0.05,0.05 0.05,0.04 0.05,0.05 0.04,0.04 0.04,0.05 0.04,0.05 0.04,0.05 0.03,0.05 0.03,0.05 0.02,0.05 0.03,0.06 0.01,0.05 0.02,0.06 0.01,0.05 0.01,0.06 0,0.06 c 0,0.6 -0.71,1.07 -1.72,1.07 l -2.14,0 c -0.13,0 -0.22,0 -0.22,-0.15 0,-0.1 0.08,-0.1 0.22,-0.1 0.01,0 0.14,0 0.26,-0.02 0.15,-0.01 0.16,-0.02 0.16,-0.09 0,-0.02 0,-0.05 -0.02,-0.16 l -0.93,-3.69 c -0.06,-0.23 -0.07,-0.29 -0.61,-0.29 -0.12,0 -0.21,0 -0.21,-0.15 0,-0.07 0.05,-0.1 0.11,-0.1 0.13,0 0.29,0.02 0.43,0.02 0.13,0 0.34,0.01 0.46,0.01 0.14,0 0.3,-0.01 0.45,-0.01 0.14,0 0.32,-0.02 0.46,-0.02 0.04,0 0.15,0 0.15,0.15 0,0.1 -0.07,0.1 -0.23,0.1 -0.11,0 -0.14,0 -0.27,0.01 -0.15,0.02 -0.15,0.04 -0.15,0.11 0,0.01 0,0.05 0.03,0.15 l 0.44,1.76 0.95,0 0,0.19 -0.9,0 0.45,1.79 c 0.05,0.2 0.06,0.22 0.22,0.24 l 0.44,0 c 0.65,0 1.45,0 1.45,-0.72 0,-0.28 -0.13,-0.72 -0.46,-0.97 -0.28,-0.22 -0.72,-0.34 -1.2,-0.34 l 0,-0.19 c 0.6,0 0.85,-0.3 0.85,-0.63 0,-0.08 -0.06,-0.32 -0.09,-0.48 -0.09,-0.32 -0.12,-0.43 -0.12,-0.54 0,-0.55 0.51,-0.77 1.03,-0.77 0.64,0 0.92,0.68 0.92,0.81 0,0.02 -0.02,0.1 -0.12,0.1 -0.09,0 -0.11,-0.05 -0.13,-0.12 -0.09,-0.31 -0.35,-0.59 -0.64,-0.59 -0.19,0 -0.32,0.07 -0.32,0.45 0,0.17 0.04,0.53 0.07,0.72 0.03,0.19 0.03,0.26 0.03,0.33 0,0.08 0,0.3 -0.2,0.51 -0.13,0.15 -0.32,0.24 -0.47,0.29 z"
             id="path6050"
             inkscape:connector-curvature="0"
             style="fill:#000000;stroke-width:0" /></g><g
           ns0:preamble=""
           ns0:text="$\\Delta C_D\\approx \\frac{C_L^2}{\\pi AR}$"
           word-spacing="normal"
           letter-spacing="normal"
           font-size-adjust="none"
           font-stretch="normal"
           font-weight="normal"
           font-variant="normal"
           font-style="normal"
           stroke-miterlimit="10.433"
           xml:space="preserve"
           transform="matrix(0.83301866,0,0,0.83301863,704.70208,-178.51156)"
           id="g6260"
           style="font-style:normal;font-variant:normal;font-weight:normal;font-stretch:normal;letter-spacing:normal;word-spacing:normal;text-anchor:start;fill:none;fill-opacity:1;fill-rule:evenodd;stroke:#000000;stroke-width:1.20045328;stroke-linecap:butt;stroke-linejoin:miter;stroke-miterlimit:10.43299961;stroke-dasharray:none;stroke-dashoffset:0;stroke-opacity:1"><path
             id="path6262"
             d="m 227.83,712.72 -0.01,0.02 0,0.01 -0.01,0.01 0,0.01 -0.01,0.01 -0.01,0.01 0,0.01 -0.01,0.01 0,0 -0.01,0.01 0,0.01 -0.01,0.01 0,0 -0.01,0.01 -0.01,0.01 0,0 -0.01,0.01 -0.01,0 0,0.01 -0.01,0 -0.01,0 -0.01,0.01 -0.01,0 -0.01,0 -0.01,0.01 -0.01,0 -0.01,0 -0.01,0 -0.02,0 -0.01,0 -0.01,0 -0.02,0 c -0.17,0 -0.19,-0.05 -0.26,-0.18 l -0.06,-0.81 2.68,-5.37 -5.36,0 2.68,5.37 0.06,0.81 -3.36,-6.73 c -0.05,-0.09 -0.05,-0.11 -0.05,-0.12 0,-0.08 0.06,-0.08 0.22,-0.08 l 6.9,0 c 0.16,0 0.22,0 0.22,0.08 0,0.01 0,0.03 -0.05,0.12 z"
             inkscape:connector-curvature="0"
             style="fill:#000000;stroke-width:0" /><path
             id="path6264"
             d="m 239.29,712.69 0,0.01 0,0 0,0 0,0.01 0,0 0,0 0,0.01 0,0 0,0.01 0,0 0,0 -0.01,0.01 0,0 0,0.01 0,0 -0.01,0 0,0.01 0,0 -0.01,0.01 0,0 0,0 -0.01,0.01 0,0 -0.01,0 0,0 -0.01,0.01 0,0 0,0 -0.01,0 0,0 0,0 -0.01,0 0,0 0,0 -0.01,0 0,0 -0.01,0 0,0 0,0 c -0.03,0 -0.04,-0.01 -0.15,-0.12 l -0.7,-0.76 c -0.09,0.14 -0.55,0.88 -1.65,0.88 -2.22,0 -4.46,-2.19 -4.46,-4.5 0,-1.64 1.17,-2.72 2.7,-2.72 0.86,0 1.62,0.4 2.15,0.86 0.92,0.81 1.09,1.71 1.09,1.74 0,0.1 -0.1,0.1 -0.12,0.1 -0.06,0 -0.11,-0.02 -0.13,-0.1 -0.09,-0.28 -0.32,-0.99 -1,-1.57 -0.69,-0.55 -1.32,-0.72 -1.83,-0.72 -0.9,0 -1.95,0.52 -1.95,2.07 0,0.56 0.21,2.17 1.2,3.33 0.61,0.71 1.54,1.2 2.43,1.2 1.01,0 1.6,-0.76 1.6,-1.91 0,-0.4 -0.03,-0.41 -0.03,-0.51 0,-0.1 0.11,-0.1 0.15,-0.1 0.13,0 0.13,0.02 0.18,0.2 z"
             inkscape:connector-curvature="0"
             style="fill:#000000;stroke-width:0" /><path
             id="path6266"
             d="m 240.17,704.84 0,-0.02 -0.01,-0.02 0,-0.02 -0.01,-0.02 0,-0.02 -0.01,-0.02 -0.01,-0.01 0,-0.02 -0.01,-0.01 -0.01,-0.01 0,-0.02 -0.01,-0.01 -0.01,-0.01 -0.02,-0.01 -0.01,-0.01 -0.01,-0.01 -0.02,0 -0.01,-0.01 -0.02,-0.01 -0.02,0 -0.01,-0.01 -0.02,0 -0.01,0 -0.01,0 -0.01,-0.01 -0.02,0 -0.01,0 -0.01,0 -0.02,0 -0.02,0 -0.01,-0.01 -0.02,0 -0.02,0 -0.01,0 -0.02,0 -0.02,0 -0.02,0 -0.02,0 -0.02,0 -0.03,0 -0.02,0 -0.02,0 -0.03,0 -0.02,0 c -0.13,0 -0.21,0 -0.21,-0.16 0,-0.09 0.08,-0.09 0.21,-0.09 l 2.48,0 -0.12,0.25 -0.95,0 c -0.21,0 -0.22,0 -0.22,0.07 0,0 0,0.04 0.03,0.14 l 0.95,3.8 c 0.06,0.21 0.06,0.23 0.36,0.23 l 0.89,0 c 0.78,0 1.43,-0.38 1.43,-1.33 0,-0.16 -0.07,-1.36 -0.76,-2.16 -0.27,-0.31 -0.87,-0.75 -1.73,-0.75 l 0.12,-0.25 c 1.55,0 3.03,1.42 3.03,2.93 0,1.02 -0.7,1.81 -1.83,1.81 l -2.54,0 c -0.14,0 -0.22,0 -0.22,-0.15 0,-0.1 0.07,-0.1 0.23,-0.1 0.11,0 0.14,0 0.26,-0.01 0.14,-0.01 0.15,-0.03 0.15,-0.1 0,-0.01 0,-0.04 -0.02,-0.15 z"
             inkscape:connector-curvature="0"
             style="fill:#000000;stroke-width:0" /><path
             id="path6268"
             d="m 256.03,710.28 0,0.02 0,0.02 0,0.02 0,0.01 0,0.02 0,0.02 -0.01,0.01 0,0.01 0,0.02 -0.01,0.01 0,0.01 0,0.02 -0.01,0.01 0,0.01 -0.01,0.01 0,0.01 -0.01,0.01 0,0 -0.01,0.01 0,0.01 -0.01,0.01 0,0 -0.01,0.01 -0.01,0 0,0 -0.01,0.01 0,0 -0.01,0 -0.01,0.01 0,0 -0.01,0 -0.01,0 c -0.04,0 -0.13,-0.04 -0.14,-0.27 -0.04,-0.69 -0.73,-1.09 -1.38,-1.09 -0.58,0 -1.07,0.31 -1.59,0.65 -0.54,0.36 -1.08,0.72 -1.72,0.72 -0.93,0 -1.66,-0.71 -1.66,-1.62 0,-0.22 0.08,-0.3 0.14,-0.3 0.09,0 0.14,0.19 0.14,0.23 0.05,0.83 0.86,1.13 1.38,1.13 0.57,0 1.07,-0.31 1.59,-0.65 0.54,-0.36 1.07,-0.72 1.72,-0.72 0.93,0 1.66,0.71 1.66,1.62 z"
             inkscape:connector-curvature="0"
             style="fill:#000000;stroke-width:0" /><path
             id="path6270"
             d="m 256.03,707.96 0,0.01 0,0.01 0,0.01 0,0.02 0,0.01 0,0.01 0,0.01 0,0.01 0,0.01 -0.01,0.01 0,0.01 0,0.01 0,0.01 0,0.01 0,0.01 -0.01,0.01 0,0 0,0.01 0,0.01 -0.01,0 0,0.01 0,0.01 0,0 -0.01,0.01 0,0.01 0,0 -0.01,0.01 0,0.01 -0.01,0.01 -0.01,0 0,0.01 -0.01,0.01 0,0 -0.01,0.01 -0.01,0 0,0 -0.01,0.01 0,0 -0.01,0 0,0 -0.01,0 0,0 0,0 0,0 -0.01,0 c -0.04,0 -0.13,-0.05 -0.14,-0.27 -0.04,-0.68 -0.73,-1.09 -1.38,-1.09 -0.58,0 -1.07,0.31 -1.59,0.66 -0.54,0.36 -1.08,0.71 -1.72,0.71 -0.93,0 -1.66,-0.7 -1.66,-1.62 0,-0.21 0.08,-0.29 0.14,-0.29 0.09,0 0.14,0.18 0.14,0.23 0.05,0.83 0.86,1.13 1.38,1.13 0.57,0 1.07,-0.31 1.59,-0.66 0.54,-0.36 1.07,-0.71 1.72,-0.71 0.95,0 1.66,0.73 1.66,1.61 z"
             inkscape:connector-curvature="0"
             style="fill:#000000;stroke-width:0" /><path
             id="path6272"
             d="m 269.41,715.67 0,0 0,0.01 0,0 0,0 0,0.01 0,0 0,0 0,0.01 0,0 0,0.01 0,0 -0.01,0 0,0.01 0,0 0,0 -0.01,0.01 0,0 0,0 0,0.01 -0.01,0 0,0 0,0.01 -0.01,0 0,0 -0.01,0 0,0 -0.01,0.01 0,0 -0.01,0 0,0 0,0 0,0 -0.01,0 0,0 0,0 -0.01,0 c -0.05,0 -0.06,-0.02 -0.12,-0.08 l -0.51,-0.54 c -0.06,0.08 -0.45,0.62 -1.31,0.62 -1.69,0 -3.35,-1.5 -3.35,-3.07 0,-1.13 0.89,-1.96 2.14,-1.96 0.38,0 1.04,0.08 1.76,0.68 0.55,0.47 0.7,1.07 0.7,1.13 0,0.09 -0.08,0.09 -0.11,0.09 -0.1,0 -0.11,-0.03 -0.13,-0.11 -0.28,-0.95 -1.26,-1.54 -2.1,-1.54 -0.74,0 -1.56,0.4 -1.56,1.5 0,0.2 0.05,1.3 0.85,2.17 0.48,0.54 1.21,0.86 1.87,0.86 0.81,0 1.28,-0.59 1.28,-1.36 0,-0.2 -0.02,-0.25 -0.02,-0.29 0,-0.09 0.09,-0.09 0.13,-0.09 0.11,0 0.11,0.02 0.14,0.15 z"
             inkscape:connector-curvature="0"
             style="fill:#000000;stroke-width:0" /><path
             id="path6274"
             d="m 272.68,714.84 -0.21,0 c -0.02,-0.1 -0.07,-0.41 -0.15,-0.45 -0.04,-0.04 -0.46,-0.04 -0.53,-0.04 l -0.97,0 c 0.32,0.25 0.69,0.53 0.99,0.73 0.45,0.3 0.87,0.59 0.87,1.12 0,0.63 -0.61,0.99 -1.32,0.99 -0.67,0 -1.16,-0.39 -1.16,-0.88 0,-0.26 0.22,-0.3 0.29,-0.3 0.13,0 0.29,0.09 0.29,0.29 0,0.18 -0.13,0.28 -0.28,0.29 0.14,0.23 0.42,0.38 0.76,0.38 0.48,0 0.88,-0.29 0.88,-0.78 0,-0.41 -0.28,-0.73 -0.67,-1.05 l -1.21,-1.03 c -0.05,-0.05 -0.06,-0.05 -0.06,-0.08 l 0,-0.15 2.31,0 z"
             inkscape:connector-curvature="0"
             style="fill:#000000;stroke-width:0" /><path
             id="path6276"
             d="m 271.63,711.85 0,0.01 0.01,0.01 0,0.01 0,0.01 0.01,0.01 0,0.01 0,0.01 0,0.01 0.01,0.01 0,0 0.01,0.01 0,0.01 0,0 0.01,0.01 0,0 0.01,0.01 0,0 0.01,0.01 0,0 0.01,0.01 0.01,0 0,0 0.01,0.01 0.01,0 0.01,0 0,0.01 0.01,0 0.01,0 0.01,0 0.01,0 0.01,0.01 0.02,0 c 0.13,0.02 0.23,0.02 0.37,0.02 0.15,0 0.21,0 0.21,0.14 0,0.05 -0.04,0.08 -0.09,0.08 -0.13,0 -0.27,-0.01 -0.4,-0.01 -0.14,0 -0.27,-0.01 -0.41,-0.01 -0.13,0 -0.26,0.01 -0.39,0.01 -0.11,0 -0.24,0.01 -0.35,0.01 -0.03,0 -0.12,0 -0.12,-0.14 0,-0.08 0.06,-0.08 0.18,-0.08 0.05,0 0.21,0 0.32,-0.03 0,-0.06 0,-0.07 -0.02,-0.13 l -0.65,-2.6 c -0.04,-0.15 -0.04,-0.19 -0.42,-0.19 -0.13,0 -0.21,0 -0.21,-0.14 0,-0.08 0.08,-0.08 0.16,-0.08 l 2.83,0 c 0.12,0 0.13,0 0.17,0.11 0.05,0.13 0.45,1.13 0.45,1.16 0,0.03 -0.03,0.08 -0.11,0.08 -0.07,0 -0.08,-0.01 -0.13,-0.14 -0.27,-0.64 -0.58,-0.99 -1.41,-0.99 l -0.69,0 c -0.04,0 -0.11,0 -0.16,0.01 0.01,0.04 0.01,0.05 0.02,0.09 z"
             inkscape:connector-curvature="0"
             style="fill:#000000;stroke-width:0" /><line
             id="line6278"
             y2="708.28003"
             x2="277.5"
             y1="708.28003"
             x1="260.56"
             style="stroke-width:0.47778043" /><path
             id="path6280"
             d="m 262.73,704.88 0.82,0 c -0.1,-0.42 -0.25,-1.05 -0.25,-1.6 0,-0.28 0.03,-0.47 0.07,-0.62 0.11,-0.35 0.21,-0.37 0.32,-0.37 0.16,0 0.32,0.14 0.32,0.31 0,0.05 -0.01,0.08 -0.05,0.15 -0.13,0.26 -0.26,0.66 -0.26,1.22 0,0.14 0,0.42 0.1,0.91 l 0.87,0 c 0.12,0 0.18,0 0.26,0.05 0.09,0.07 0.12,0.19 0.12,0.22 0,0.2 -0.19,0.2 -0.3,0.2 l -2.63,0 c -0.29,0 -0.48,-0.06 -0.79,-0.35 -0.19,-0.16 -0.46,-0.54 -0.46,-0.6 0,-0.08 0.09,-0.08 0.12,-0.08 0.08,0 0.09,0.01 0.13,0.07 0.35,0.49 0.78,0.49 0.94,0.49 l 0.42,0 c -0.21,-0.77 -0.59,-1.59 -0.8,-2 -0.04,-0.09 -0.11,-0.24 -0.13,-0.27 -0.01,-0.03 -0.02,-0.05 -0.02,-0.1 0,-0.11 0.08,-0.22 0.24,-0.22 0.28,0 0.36,0.31 0.52,0.93 z"
             inkscape:connector-curvature="0"
             style="fill:#000000;stroke-width:0" /><path
             id="path6282"
             d="m 266.9,703.19 -0.02,-0.04 -0.02,-0.03 -0.02,-0.03 -0.03,-0.03 -0.02,-0.03 -0.02,-0.03 -0.02,-0.03 -0.03,-0.03 -0.02,-0.02 -0.02,-0.03 -0.03,-0.02 -0.02,-0.02 -0.03,-0.02 -0.02,-0.03 -0.03,-0.01 -0.02,-0.02 -0.03,-0.02 -0.02,-0.02 -0.03,-0.01 -0.03,-0.02 -0.03,-0.01 -0.03,-0.01 -0.03,-0.01 -0.03,-0.01 -0.03,-0.01 -0.03,-0.01 -0.03,-0.01 -0.04,-0.01 -0.03,0 -0.04,-0.01 -0.04,0 -0.03,-0.01 c -0.07,0 -0.16,0 -0.16,-0.14 0,-0.08 0.06,-0.11 0.09,-0.11 0.18,0 0.42,0.03 0.6,0.03 0.23,0 0.51,-0.03 0.72,-0.03 0.04,0 0.14,0 0.14,0.16 0,0.09 -0.09,0.09 -0.12,0.09 -0.05,0.01 -0.31,0.03 -0.31,0.21 0,0.09 0.07,0.21 0.11,0.27 l 0.56,0.86 1.99,0 -0.04,0.25 -1.79,0 1.47,2.28 0.32,-2.28 0.04,-0.25 0.17,-1.15 c -0.03,-0.07 -0.07,-0.19 -0.49,-0.19 -0.08,0 -0.18,0 -0.18,-0.15 0,-0.03 0.02,-0.1 0.12,-0.1 0.2,0 0.69,0.03 0.89,0.03 0.13,0 0.29,0 0.41,0 0.13,-0.01 0.28,-0.03 0.4,-0.03 0.09,0 0.14,0.06 0.14,0.15 0,0.1 -0.08,0.1 -0.19,0.1 -0.41,0 -0.42,0.06 -0.44,0.23 l -0.62,4.29 c -0.02,0.14 -0.03,0.19 -0.16,0.19 -0.13,0 -0.18,-0.06 -0.24,-0.16 z"
             inkscape:connector-curvature="0"
             style="fill:#000000;stroke-width:0" /><path
             id="path6284"
             d="m 275.6,704.72 0.08,0.02 0.07,0.02 0.08,0.02 0.07,0.03 0.08,0.02 0.07,0.03 0.07,0.03 0.07,0.03 0.07,0.03 0.07,0.04 0.06,0.03 0.07,0.04 0.06,0.04 0.06,0.03 0.06,0.05 0.05,0.04 0.05,0.04 0.06,0.05 0.04,0.04 0.05,0.05 0.04,0.05 0.04,0.04 0.03,0.05 0.04,0.05 0.03,0.06 0.02,0.05 0.02,0.05 0.02,0.06 0.02,0.05 0.01,0.06 0,0.06 0.01,0.05 c 0,0.6 -0.72,1.07 -1.73,1.07 l -2.13,0 c -0.14,0 -0.23,0 -0.23,-0.15 0,-0.1 0.09,-0.1 0.23,-0.1 0,0 0.14,0 0.26,-0.01 0.15,-0.01 0.16,-0.03 0.16,-0.1 0,-0.01 0,-0.05 -0.03,-0.15 l -0.92,-3.69 c -0.06,-0.24 -0.07,-0.3 -0.62,-0.3 -0.11,0 -0.21,0 -0.21,-0.14 0,-0.07 0.05,-0.11 0.12,-0.11 0.13,0 0.29,0.03 0.43,0.03 0.13,0 0.33,0 0.46,0 0.14,0 0.3,0 0.44,0 0.15,0 0.32,-0.03 0.47,-0.03 0.03,0 0.15,0 0.15,0.15 0,0.1 -0.07,0.1 -0.23,0.1 -0.12,0 -0.14,0 -0.27,0.02 -0.15,0.02 -0.15,0.03 -0.15,0.1 0,0.01 0,0.05 0.03,0.16 l 0.44,1.76 0.94,0 0.01,0.19 -0.9,0 0.45,1.79 c 0.05,0.19 0.06,0.21 0.21,0.23 l 0.45,0 c 0.65,0 1.45,0 1.45,-0.71 0,-0.29 -0.13,-0.73 -0.46,-0.98 -0.29,-0.22 -0.72,-0.33 -1.2,-0.33 l -0.01,-0.19 c 0.6,0 0.86,-0.3 0.86,-0.63 0,-0.09 -0.06,-0.33 -0.1,-0.49 -0.08,-0.32 -0.11,-0.42 -0.11,-0.54 0,-0.55 0.51,-0.76 1.02,-0.76 0.65,0 0.92,0.68 0.92,0.8 0,0.02 -0.01,0.1 -0.11,0.1 -0.09,0 -0.11,-0.05 -0.13,-0.12 -0.1,-0.3 -0.36,-0.59 -0.65,-0.59 -0.18,0 -0.31,0.08 -0.31,0.45 0,0.18 0.04,0.54 0.07,0.73 0.03,0.18 0.03,0.25 0.03,0.32 0,0.09 0,0.31 -0.2,0.52 -0.13,0.14 -0.32,0.23 -0.47,0.29 z"
             inkscape:connector-curvature="0"
             style="fill:#000000;stroke-width:0" /></g></g></g></g></svg>